<?xml version="1.0" encoding="UTF-8" standalone="no"?>
<!-- Created with Inkscape (http://www.inkscape.org/) -->

<svg
   xmlns:dc="http://purl.org/dc/elements/1.1/"
   xmlns:cc="http://creativecommons.org/ns#"
   xmlns:rdf="http://www.w3.org/1999/02/22-rdf-syntax-ns#"
   xmlns:svg="http://www.w3.org/2000/svg"
   xmlns="http://www.w3.org/2000/svg"
   xmlns:xlink="http://www.w3.org/1999/xlink"
   version="1.1"
   width="2912"
   height="1902"
   id="svg2">
  <metadata
     id="metadata8">
    <rdf:RDF>
      <cc:Work
         rdf:about="">
        <dc:format>image/svg+xml</dc:format>
        <dc:type
           rdf:resource="http://purl.org/dc/dcmitype/StillImage" />
        <dc:title></dc:title>
      </cc:Work>
    </rdf:RDF>
  </metadata>
  <defs
     id="defs6" />
  <image
     xlink:href="file:///C:/C_ImportantStuffUnited/DAE_1S2/AMP2/Sonneveld_E_AmpGame/recources/Hit.png"
     x="0"
     y="0"
     width="2912"
     height="1902"
     id="image10" />
  <path
     d="M 0,951 0,0 l 1456,0 1456,0 0,951 0,951 -1456,0 -1456,0 0,-951 z m 2310.272,869.9929 c 6.4747,-0.5365 15.0088,-1.6503 18.9649,-2.4751 l 7.1927,-1.4998 7.3163,-3.4745 7.3163,-3.4744 5.7189,-4.5251 c 3.1454,-2.4887 10.8939,-9.483 17.2189,-15.5427 l 11.5,-11.0177 -4.3285,1.4915 -4.3285,1.4916 -6.3233,5.7666 -6.3234,5.7667 -9.3481,5.3981 c -5.1415,2.969 -13.5353,7.758 -18.6529,10.6422 l -9.3047,5.244 -6.6953,1.7058 -6.6953,1.7057 -10,0.5019 -10,0.5019 -12,-1.5836 -12,-1.5837 -7,-3.4817 -7,-3.4817 -9,-1.1664 -9,-1.1664 -10.7109,0.5604 -10.7109,0.5603 -1.609,0.9005 -1.609,0.9005 7.842,3.5847 7.8421,3.5847 6.4437,1.6697 c 3.5441,0.9184 10.0591,2.0209 14.4779,2.4502 l 8.0341,0.7804 20.5,0.1204 20.5,0.1204 11.772,-0.9754 z m -904.4361,-12.9665 8.3358,-0.9584 5.4683,-2.5035 5.4683,-2.5034 13.8017,-13.4033 13.8017,-13.4032 7.3941,-5.2204 7.3942,-5.2204 9.5,-4.7849 9.5,-4.7849 9.5,-3.0252 9.5,-3.0252 10,-1.5725 10,-1.5725 21,-1.0581 21,-1.0582 13.5,-1.9666 c 26.4317,-3.8505 57.493,-11.9298 84.9097,-22.0855 7.4747,-2.7688 19.3521,-7.0012 26.3942,-9.4054 l 12.8039,-4.3712 10.6961,-2.3018 10.6961,-2.3018 23,0.058 23,0.058 9.766,2.173 c 13.1406,2.9239 23.3962,6.4256 34.4102,11.7492 l 9.1761,4.4353 10.3239,6.9301 c 5.6781,3.8116 16.1738,11.7448 23.3238,17.6293 7.15,5.8844 16.0863,13.2121 19.8584,16.2836 l 6.8584,5.5847 112.1416,-2.8215 112.1416,-2.8214 3.5,-1.4387 c 1.925,-0.7912 6.65,-2.3581 10.5,-3.4818 l 7,-2.0431 31.5,-0.8094 31.5,-0.8094 6.5,-1.22 6.5,-1.22 4.5,-2.2552 c 6.6139,-3.3146 35.1366,-14.5163 53.5,-21.011 l 16,-5.6588 7.2966,-4.5376 7.2967,-4.5377 5.0502,-5.8064 5.0503,-5.8064 7.8547,-4.0865 7.8547,-4.0865 12.2984,-4.5326 c 23.9244,-8.8176 26.1132,-9.5266 35.1604,-11.3892 5.0259,-1.0348 14.988,-3.5296 22.138,-5.544 l 13,-3.6627 15.2774,-6.9163 c 8.4026,-3.804 20.5526,-9.5612 27,-12.7938 l 11.7226,-5.8775 13.8554,-9.1721 c 27.3354,-18.0957 39.599,-27.7045 59.5615,-46.6676 l 10.4146,-9.8933 3.5563,-5.5 c 4.3558,-6.7365 22.0828,-41.7144 26.3539,-52 l 3.1144,-7.5 6.2225,-10.5 6.2224,-10.5 2.3631,-2.2023 c 1.2998,-1.2112 4.0301,-2.8987 6.0674,-3.75 l 3.7043,-1.5477 2.5648,0 2.5649,0 4.3054,-9.25 c 12.8328,-27.5712 39.6097,-71.1833 53.6596,-87.3966 l 2.7268,-3.1465 7.1929,-22.3535 c 3.956,-12.2944 9.6202,-29.5534 12.5869,-38.3534 2.9667,-8.8 7.404,-23.2 9.8605,-32 2.4565,-8.8 6.9903,-23.2 10.0751,-32 3.0848,-8.8 7.8013,-23.2 10.4811,-32 5.8803,-19.3096 7.1661,-22.6312 14.9881,-38.7197 l 6.0998,-12.5461 4.022,-4.5692 4.0219,-4.5692 3.0746,-18.2979 3.0746,-18.2979 0.6779,-42 0.6778,-42 1.1738,-2.7337 1.1738,-2.7337 -0.9942,-5.3782 c -1.9352,-10.4687 -9.104,-28.1005 -21.2671,-52.30683 l -4.5989,-9.15243 -1.1189,-4.44372 -1.1189,-4.44371 1.122,-4.16698 1.1221,-4.16699 3.0079,-3.42581 3.0079,-3.42582 3.5686,-1.17774 3.5686,-1.17774 4.3997,0.49591 4.3997,0.49591 3.9834,2.63611 3.9834,2.6361 7.8917,16.23467 c 4.3404,8.92907 9.9705,20.73467 12.5114,26.23467 l 4.6197,10 2.4865,8.4247 c 4.9341,16.7183 7.0495,35.0966 8.0655,70.0753 l 0.6536,22.5 -1.1078,19 -1.1077,19 -1.4749,8.5 c -0.8111,4.675 -2.2008,15.7 -3.0882,24.5 -0.8875,8.8 -2.2524,18.8404 -3.0334,22.3121 -0.7809,3.4716 -1.4198,6.6778 -1.4198,7.125 l 0,0.8129 2.9608,0.5922 2.9607,0.5921 4.0174,3.6295 c 2.2096,1.9962 4.9381,5.1191 6.0633,6.9398 l 2.0459,3.3103 1.1099,8.5981 1.1099,8.598 -1.6699,4.3725 -1.6699,4.3726 -1.968,1.781 -1.968,1.781 4.4155,4.3531 4.4155,4.3531 3.0884,7.4188 3.0885,7.4189 0,4.6684 0,4.6683 -1.6407,3.4576 -1.6408,3.4576 -3.4014,2.5944 -3.4014,2.5944 -4.9036,0.4712 -4.9036,0.4711 -2.5359,-0.6364 -2.5359,-0.6365 -3.6391,-3.1952 -3.6392,-3.1952 -3.5334,-7.5403 -3.5334,-7.5404 -0.096,-6.1647 -0.096,-6.1648 3.0805,-4.374 3.0805,-4.3741 -2.2505,-1.6976 -2.2506,-1.6976 -1.1597,5.2364 c -0.6378,2.88 -2.2705,10.4114 -3.6282,16.7364 -1.3576,6.325 -3.5441,15.1 -4.8587,19.5 -1.3146,4.4 -3.7947,14.525 -5.5113,22.5 l -3.121,14.5 -4.875,15.5 c -2.6812,8.525 -6.9655,23.15 -9.5205,32.5 -5.0579,18.5086 -15.2836,50.4415 -19.2134,60 -1.3568,3.3 -9.3568,20.175 -17.7779,37.5 -8.421,17.325 -17.0864,35.325 -19.2563,40 l -3.9454,8.5 -5.8431,8 c -6.5163,8.9216 -15.8298,22.4268 -26.9754,39.1162 l -7.4238,11.1163 -9.4849,10.1459 -9.485,10.146 -7.1803,9.7378 -7.1803,9.7378 -15.1098,15.5 -15.1099,15.5 -6.5,8.4496 c -3.575,4.6473 -8.3,10.4528 -10.5,12.901 l -4,4.4513 -4,1.8271 -4,1.8271 -4.273,0.022 -4.2729,0.022 -7.7478,4.5018 c -4.2613,2.4759 -14.9385,7.6853 -23.7271,11.5763 l -15.9792,7.0746 -25.5,8.5141 c -14.025,4.6828 -25.6017,8.6126 -25.726,8.733 -0.1244,0.1204 1.9436,0.2517 4.5954,0.2917 l 4.8216,0.073 2.4045,1.2429 c 3.4665,1.7917 6.8817,5.0839 8.4995,8.1932 l 1.405,2.7004 0,5.1154 0,5.1154 -0.9537,1.782 -0.9537,1.782 12.8029,0.6124 12.8029,0.6124 7.8717,1.6259 c 4.3294,0.8943 11.4848,2.7599 15.9008,4.1457 l 8.0291,2.5198 10.5,5.3928 10.5,5.3927 11,8.1015 c 6.05,4.4559 13.25,9.2854 16,10.7324 l 5,2.631 7.5,-0.059 7.5,-0.059 9.3225,-3.6613 9.3226,-3.6613 26.1774,-13.4167 c 29.3995,-15.068 43.0026,-21.1843 59.471,-26.7397 l 11.2935,-3.8097 10.7065,-2.0863 10.7065,-2.0862 13.5,-0.8686 13.5,-0.8686 13.8636,0.9227 13.8635,0.9227 12.6365,2.6485 12.6364,2.6486 6.0786,0.043 6.0786,0.043 3.6232,-2.2393 3.6231,-2.2392 2.4761,-5.1983 2.476,-5.1982 0.6376,-6 0.6377,-6 -1.6178,-20 -1.6178,-20 0.632,-9 c 0.3477,-4.95 1.5207,-15.975 2.6068,-24.5 l 1.9748,-15.5 0.5847,-14.5 0.5848,-14.5 -1.1507,-72 c -0.6329,-39.6 -1.6014,-88.65 -2.1524,-109 -0.5509,-20.35 -1.8862,-93.7 -2.9672,-163 -1.081,-69.3 -2.436,-144 -3.011,-166 -0.5751,-22 -1.9208,-95.8 -2.9905,-164 -1.0697,-68.2 -2.432,-143.35 -3.0273,-167 -0.5954,-23.65 -1.9872,-95.425 -3.0929,-159.5 -1.1057,-64.075 -2.3997,-134.5 -2.8756,-156.5 l -0.8653,-40 -1.1206,-9 c -1.5665,-12.58061 -3.0146,-18.35243 -10.573,-42.14228 -10.6261,-33.44531 -17.5066,-48.85786 -31.1369,-69.74758 -9.2824,-14.22611 -16.1128,-22.56366 -29.2372,-35.68798 -22.1922,-22.19219 -45.6628,-37.89239 -73.8142,-49.37657 l -11.2365,-4.58382 -11.7635,-3.38452 -11.7636,-3.38452 -12.5,-2.08662 -12.5,-2.08661 -13.5,-1.00732 -13.5,-1.00732 -24.5,-0.0123 -24.5,-0.0123 -14.5,-1.01447 c -20.658,-1.4453 -50.1911,-4.49608 -82,-8.47064 -36.4592,-4.55562 -44.5859,-5.24125 -77,-6.4964 -26.0666,-1.00936 -41.6169,-2.04549 -82,-5.46378 -9.625,-0.81473 -31.45,-2.1768 -48.5,-3.02683 -32.6307,-1.62681 -53.5496,-3.33338 -80,-6.52641 -8.8,-1.06231 -31.75,-3.71871 -51,-5.90311 l -35,-3.97163 -42,-3.15361 -42,-3.15362 -15.5,-0.13615 -15.5,-0.13616 -5.745,1.76279 -5.7451,1.76278 -5.1985,4.2377 -5.1985,4.23769 -4.8548,6.98582 -4.8549,6.98581 -12.8721,26 -12.8721,26 -5.4782,14 c -6.6367,16.96078 -22.6455,65.53987 -26.0833,79.15046 -1.3683,5.41725 -3.6546,16.37454 -5.0806,24.34954 -1.4261,7.975 -3.9236,21.33944 -5.5501,29.69875 -3.9155,20.12378 -6.5843,36.87676 -8.4623,53.12084 l -1.5399,13.31959 -0.9731,27.68041 -0.973,27.68041 -1.1148,7.49443 -1.1147,7.49443 -1.938,5.17982 -1.938,5.17982 -3.8927,4.01112 -3.8926,4.01112 -3.8139,1.05905 -3.8138,1.05906 -4.8222,0.006 -4.8223,0.006 -11.1777,-2.5997 -11.1778,-2.5997 -6.5218,0.52238 -6.5217,0.52239 -6.7417,2.53756 -6.7417,2.53756 -7.2365,4.67448 c -3.9801,2.57096 -15.5616,10.62847 -25.7366,17.90557 -31.0532,22.20911 -43.2783,29.48953 -55.4684,33.03329 l -5.8489,1.70032 -8.0913,-0.42678 -8.0914,-0.42679 -5.6684,-2.59759 c -3.1176,-1.42868 -8.5176,-4.51761 -12,-6.8643 l -6.3316,-4.26669 -7.5598,-7.576 -7.5599,-7.576 -2.1153,-4.57985 -2.1153,-4.57984 -1.1519,-6.35235 -1.1519,-6.35234 0.662,-6.06781 c 0.364,-3.3373 2.9076,-20.91781 5.6524,-39.06781 l 4.9906,-33 3.6646,-16.5 3.6647,-16.5 -0.01,-39.5 -0.01,-39.5 -2.6689,-19.5 c -1.4679,-10.725 -3.1818,-25.8 -3.8087,-33.5 -1.405,-17.2583 -2.9551,-25.63983 -6.9429,-37.54277 l -3.0942,-9.23544 -5.1295,-9.98615 -5.1296,-9.98616 -5.6589,-7.62474 -5.6589,-7.62474 -6.934,-6.36454 -6.934,-6.36454 -10.5,-6.98568 -10.5,-6.98569 -17,-8.32652 -17,-8.32653 -9.7828,-3.60187 c -20.5194,-7.55498 -48.8244,-14.47705 -74.2172,-18.15003 l -12,-1.73577 -16.5,-0.0423 -16.5,-0.0423 -7.5,1.30289 c -10.0279,1.74203 -24.6997,5.43457 -34.5,8.6828 l -8,2.65155 -9.7087,5.03661 -9.7088,5.03662 -10.2912,7.78291 c -13.8764,10.49416 -24.9183,20.3954 -32.3786,29.03354 l -6.193,7.17084 -4.8287,8.11404 c -2.6558,4.46272 -6.5696,12.14997 -8.6972,17.08277 l -3.8685,8.96873 -3.3783,12.32652 -3.3784,12.32652 -1.6155,10.70475 -1.6156,10.70475 -0.053,15.5 -0.053,15.5 1.2453,9.5 1.2452,9.5 2.3581,8.15961 c 2.8533,9.87291 13.4567,36.70814 17.5487,44.4123 l 2.9594,5.5719 4.7056,5.62629 4.7056,5.62629 15.6033,13.80181 c 8.5818,7.59099 19.3818,17.22389 24,21.40645 4.6182,4.18255 11.5671,10.03799 15.4421,13.01208 l 7.0454,5.40744 16.4546,9.76102 16.4546,9.76102 17,12.6927 17,12.69269 7.0537,7.0342 7.0537,7.0342 1.9463,4 1.9463,4 0,9 0,9 -6.1819,13.5 c -3.4,7.425 -7.2912,16.90298 -8.647,21.06217 l -2.4651,7.56217 -1.2503,7.7502 -1.2502,7.75021 0.5961,9.68762 0.5961,9.68763 2.1626,6.98076 2.1626,6.98076 11.917,23.81805 c 15.4205,30.82048 20.1116,39.21771 31.4784,56.34724 l 9.3743,14.12682 3.981,7.95377 3.981,7.95377 1.7009,6.41942 1.7008,6.41941 -0.042,9 -0.042,9 -1.6873,6.5 c -0.9279,3.575 -4.1302,14.19212 -7.116,23.59359 l -5.4288,17.09359 -4.0995,8.19049 -4.0995,8.19049 -5.8412,7.35057 -5.8412,7.35057 -6.9962,6.02139 c -9.2998,8.0041 -16.7899,13.00127 -27.6631,18.45591 l -9,4.51495 -8.126,2.56374 c -4.4693,1.41007 -12.1193,3.32297 -17,4.25091 l -8.874,1.68716 -12.5,-0.005 -12.5,-0.005 -9.4609,-1.66252 -9.4609,-1.66252 -8.742,-2.92884 c -11.4437,-3.834 -22.2628,-9.34013 -36.4437,-18.54719 -6.3469,-4.12074 -13.7526,-8.61359 -16.4572,-9.98411 l -4.9174,-2.49186 -6.6783,-1.54878 -6.6782,-1.54878 -28.5807,0.64677 -28.5807,0.64677 -7.9138,-2.08666 -7.9139,-2.08666 -4.3759,-2.56445 c -2.4067,-1.41045 -5.8619,-3.86916 -7.678,-5.46379 l -3.3022,-2.89934 -3.3032,-6.19749 -3.3033,-6.19749 -0.4857,-6.78932 -0.4858,-6.78933 1.1918,-4.7984 c 0.6556,-2.63913 3.0492,-8.84841 5.3192,-13.79841 l 4.1274,-9 0.4218,-5.08487 0.4219,-5.08487 -2.2352,-9.67264 -2.2351,-9.67263 0.4697,-8.2425 0.4697,-8.24249 4.8896,-12 4.8895,-12 -0.1487,-13 -0.1488,-13 -2.1511,-12 c -1.183,-6.6 -2.6261,-14.925 -3.2067,-18.5 l -1.0558,-6.5 0.5274,-8 c 0.29,-4.4 1.264,-11.6 2.1643,-16 l 1.6369,-8 7.041,-20.5 c 3.8726,-11.275 8.1282,-24.48725 9.457,-29.36056 l 2.416,-8.86055 0,-5.78411 0,-5.78411 -2.0107,-6.50984 -2.0107,-6.50984 -4.3599,-5.92249 -4.3598,-5.92249 -4.3795,-3.54848 c -8.3694,-6.78144 -12.116,-7.96249 -32.5428,-10.25871 l -14.1635,-1.59214 -7.8365,-2.0412 -7.8366,-2.0412 -9.3508,-4.41646 c -5.1429,-2.42906 -13.0179,-6.65898 -17.5,-9.39983 -4.4821,-2.74085 -10.1183,-5.6729 -12.5249,-6.51567 L 1042.7485,467 l -4.1242,0.004 -4.1243,0.004 -11.5,4.02951 c -6.325,2.21623 -15.1,4.96435 -19.5,6.10694 l -8,2.07744 -27,0.77618 -27,0.77618 -12,3.03351 c -6.6,1.66844 -15.825,3.56102 -20.5,4.20574 l -8.5,1.17222 -7,-0.65447 c -19.08421,-1.78431 -34.36276,-7.90095 -49.20205,-19.69762 l -6.20205,-4.93039 -4.93039,-6.20205 C 824.31892,446.57373 818.47539,434.70261 815.34512,421.5 l -1.65966,-7 0,-11 0,-11 1.65966,-7 c 3.13788,-13.23474 8.97188,-25.07138 17.88016,-36.27717 l 4.99017,-6.27717 7.13406,-5.58202 7.13406,-5.58202 6.5948,-3.32108 6.5948,-3.32109 6.05776,-1.56973 6.05776,-1.56972 8.6372,0 8.6372,0 6.10502,2.05663 6.10503,2.05664 5.61343,3.5752 5.61343,3.5752 13.5,13.19526 13.5,13.19525 4.77044,3.23502 c 6.83047,4.63199 16.00596,8.72863 25.22956,11.26439 l 8,2.19937 17.5,0.0213 17.5,0.0213 10.1884,-2.20413 c 5.6036,-1.21227 14.1536,-3.59283 19,-5.29013 l 8.8116,-3.08601 9.6468,-5.01753 9.6468,-5.01753 8.4277,-6.32512 8.4277,-6.32511 8.4255,-8.86832 8.4255,-8.86833 4.7971,-7.1723 c 2.6384,-3.94476 6.7767,-10.89575 9.1963,-15.44664 l 4.3992,-8.27434 3.5109,-10.5 3.511,-10.5 1.7245,-9.5 1.7245,-9.5 0,-15 0,-15 -1.7245,-9.5 -1.7245,-9.5 -3.3994,-10.16013 -3.3994,-10.16014 -3.6664,-7.33986 c -2.0165,-4.037 -6.1884,-11.16494 -9.2707,-15.83994 l -5.6044,-8.5 -9.2707,-9.57749 -9.2708,-9.57749 -7.8943,-5.68397 -7.8944,-5.68397 -9.372,-4.901 -9.372,-4.901 -8.8116,-3.08116 c -4.8464,-1.69463 -13.3964,-4.06589 -19,-5.26945 l -10.1884,-2.18829 -17,0 -17,0 -10.18841,2.18829 -10.1884,2.1883 -8.8116,3.10861 C 926.6103,120.2468 906.68652,135.60895 851,190.55041 l -26.5,26.14544 -6,4.01364 c -3.3,2.2075 -8.36941,5.21202 -11.26535,6.6767 l -5.26535,2.66306 -6.23465,1.59857 -6.23465,1.59858 -8.5,-0.48711 -8.5,-0.48711 -7,-2.78901 -7,-2.78901 -8.5,-5.17974 c -4.675,-2.84885 -12.90837,-7.98451 -18.29639,-11.41256 C 715.86468,200.02455 692.06129,186.73821 668.5,174.8235 637.21628,159.00364 632.87212,155.81074 615.81616,136.10168 596.89839,114.24119 585.93122,106.0195 567.41366,99.816088 L 560.5,97.5 547,97.5191 l -13.5,0.01911 -13,2.90389 -13,2.90389 -14,0.006 -14,0.006 L 451,98.61053 422.5,93.86373 375,87.989339 C 348.875,84.758423 322.775,81.526584 317,80.807474 L 306.5,79.5 280,79.51604 l -26.5,0.01604 -11.26475,1.770654 -11.26474,1.770653 -8.73526,2.471112 -8.73525,2.471112 -11,5.422096 -11,5.422096 -6.79649,5.630437 -6.79648,5.63043 -4.59995,6.18967 -4.59995,6.18966 -3.29942,7.06727 c -1.81468,3.887 -4.26518,10.412 -5.44554,14.5 l -2.14613,7.43273 -0.51034,12.5 -0.51034,12.5 1.63441,7 1.6344,7 3.97983,8 3.97983,8 5.26983,6.5 5.26984,6.5 6.96825,5.25218 6.96825,5.25218 7,3.45283 c 8.77454,4.32814 22.64671,8.87977 35.83564,11.75811 l 10.16436,2.21826 24.5,-0.0411 24.5,-0.0411 11.85575,-2.1768 11.85575,-2.17679 8.85574,-2.96695 c 17.07634,-5.7211 26.74429,-11.4404 47.82506,-28.29203 l 13.6077,-10.87778 10,-4.96004 10,-4.96004 8.5,-1.59158 8.5,-1.59159 10,0.52543 10,0.52543 10.45848,2.15709 c 13.83091,2.85265 29.02342,7.83716 47.99999,15.74832 8.54784,3.56351 23.64153,9.74747 33.54153,13.74213 9.9,3.99466 21.82478,9.18767 26.49952,11.54002 l 8.49952,4.277 7.09536,7.11339 7.09537,7.11338 2.18183,5.85892 2.18183,5.85892 0.61146,5.85008 0.61145,5.85008 -1.19039,6.291 c -1.80902,9.56028 -4.80314,18.15733 -10.62102,30.49624 l -5.28334,11.20523 -5.3408,7.73085 -5.34079,7.73085 -7.57298,7.56391 -7.57298,7.56392 -8.70429,6.1784 -8.70429,6.1784 -10.72273,5.45848 c -5.8975,3.00216 -13.99258,6.62735 -17.98906,8.05599 l -7.26633,2.59752 -9.89075,2.0156 -9.89076,2.01561 -13.50495,0 -13.50494,0 -7.82374,-1.49693 c -11.6677,-2.2324 -19.35479,-4.98499 -34.8522,-12.47988 l -14,-6.77071 -3.27817,-0.60687 -3.27816,-0.60688 -3.81805,1.52768 -3.81804,1.52768 -11.26202,11.98919 -11.26202,11.9892 -6.1228,4.15791 -6.1228,4.15791 -6.59071,2.76913 -6.59071,2.76912 -7.2683,1.12771 -7.2683,1.12772 -6.06172,-1.06775 -6.06173,-1.06775 -6.41879,-3.00372 L 290.85889,398.039 279.67944,386.6208 268.5,375.20255 265,373.39458 c -1.925,-0.99438 -7.1395,-3.44245 -11.58778,-5.44014 C 243.56534,363.53226 237.13,359.30427 226,349.94474 l -8.5,-7.14789 -6,-2.89763 -6,-2.89764 -5.78324,-7.9e-4 -5.78325,-7.9e-4 -4.71675,2.44574 -4.71676,2.44574 -10.30035,9.44177 -10.30036,9.44177 -6.19964,2.99844 -6.19965,2.99843 -5.40751,1.25158 -5.40751,1.25158 -9.2848,-0.55393 -9.28479,-0.55394 -11.8077,-4.05036 c -6.49423,-2.22769 -14.837629,-4.74838 -18.540889,-5.60153 l -6.733198,-1.55118 -8.508173,-0.0625 -8.508172,-0.0625 -3.758629,1.20103 -3.758629,1.20102 -2.850641,2.62938 -2.85064,2.62937 -0.991334,2.5 c -0.545233,1.375 -1.389746,5.2 -1.876694,8.5 l -0.885362,6 1.013284,10.93325 1.013283,10.93325 2.428959,11.23444 c 1.335927,6.17894 2.963616,14.08398 3.617086,17.56675 l 1.188128,6.33231 0.596965,65 0.596966,65 2.352368,4.77719 2.352368,4.77719 3.206414,2.44565 3.206413,2.44565 6.754538,2.5424 c 3.714997,1.39832 9.016641,3.6887 11.781432,5.08972 l 5.026893,2.54732 4.274354,3.93996 4.27436,3.93997 2.78364,6.20277 2.78364,6.20278 0.46087,6.5447 0.46087,6.5447 -1.60908,10.78027 -1.60908,10.78028 0,11.9205 0,11.92051 1.10911,5.29922 1.10911,5.29922 1.99166,3.28109 1.99166,3.28108 4.14923,2.21281 4.14923,2.21282 49,0.59512 49,0.59513 7.65411,2.09554 7.65412,2.09554 5.26225,2.66659 5.26226,2.66658 5.23248,5.23248 5.23248,5.23248 2.66658,5.26226 2.66659,5.26225 2.08524,7.65412 2.08523,7.65411 0.019,20.5 0.019,20.5 -2.14509,7.81395 -2.14509,7.81395 -3.1496,5.90925 -3.1496,5.90926 -5.21392,4.93111 -5.21393,4.93111 -6.21599,3.13783 -6.216,3.13782 -14.19504,4.04263 -14.19503,4.04263 -7.1278,3.39403 -7.12779,3.39403 -3.12221,3.556 -3.1222,3.55599 0,3.00039 0,3.00039 1.59292,2.43109 1.59291,2.4311 10.25996,6.98386 c 5.64298,3.84112 13.0956,9.35325 16.56138,12.24919 l 6.30142,5.26534 6.43957,7.53452 c 9.54972,11.17352 15.7324,20.96928 30.34632,48.08041 14.85541,27.5591 15.89309,29.19572 28.17529,44.4377 9.95667,12.35603 13.58222,18.22831 17.21824,27.88831 l 2.50829,6.6639 3.95201,19.4565 3.95201,19.4565 3.55769,10.632 3.55768,10.632 5.95016,13.0397 c 3.27259,7.1718 8.78156,18.0365 12.24216,24.1436 l 6.29194,11.104 32.06768,48 c 62.43895,93.4608 73.0181,108.7349 88.30889,127.5 l 8.55596,10.5 19.03373,19.0859 19.03374,19.0858 11,8.7702 11,8.7702 20,13.2941 c 32.33356,21.4923 52.99237,32.7094 87.50969,47.5154 32.13478,13.784 55.13273,21.4329 89.99031,29.9297 l 20.5,4.9971 15.5,2.4886 15.5,2.4886 26,2.5827 c 50.37217,5.0037 121.8302,13.9291 144.01206,17.9878 7.69337,1.4077 22.08794,4.5533 31.98794,6.9903 l 18,4.431 14.574,4.9693 c 17.5773,5.9933 32.3569,12.2434 69.926,29.5706 l 28.5,13.1445 10.3752,5.8257 10.3752,5.8256 9.6248,7.2613 9.6248,7.2612 10.0397,10.3622 10.0397,10.3622 6.1606,9.2411 6.1605,9.2412 3.6227,7.6341 3.6227,7.6342 1.9271,7.5346 1.927,7.5347 0,7.3716 0,7.3716 -2.0669,6.1355 -2.0669,6.1356 -2.8485,4.1401 c -1.5667,2.277 -4.741,5.8499 -7.0542,7.9397 l -4.2057,3.7996 -7.1289,3.3664 -7.1289,3.3665 -6,1.517 c -3.3,0.8344 -10.5,2.2443 -16,3.1331 l -10,1.616 -38.5,0.5277 -38.5,0.5277 -36.5,-1.6485 c -20.075,-0.9066 -45.275,-2.0874 -56,-2.624 l -19.5,-0.9756 -22.5,-2.535 -22.5,-2.535 -47,-7.6753 -47,-7.6752 -22,0.017 -22,0.017 -16.4582,3.1827 -16.45821,3.1828 -13.54179,1.0217 -13.5418,1.0217 -155,3.5778 -155,3.5778 -11.5,-0.5813 -11.5,-0.5813 -5.94555,-1.5998 c -10.65672,-2.8675 -18.26781,-7.8291 -24.01402,-15.6547 l -2.73109,-3.7193 -1.90467,-6.1198 -1.90467,-6.1197 0,-8.9908 0,-8.9909 1.70464,-12.17 1.70464,-12.1701 0.004,-22.5 0.004,-22.5 -1.24848,-9 c -0.68667,-4.95 -2.15561,-12.3592 -3.2643,-16.4649 l -2.01582,-7.4649 -3.04385,-5.7108 -3.04385,-5.7109 -5.51178,-5.5559 -5.51178,-5.5559 -22.13848,-14.6748 -22.13847,-14.6748 -5.20267,-2.31 -5.20268,-2.31 -6.36419,-1.1727 -6.36419,-1.1726 -6.43313,1.1229 -6.43314,1.123 -7.35043,3.6204 -7.35042,3.6204 -8.21159,8.1458 -8.21159,8.1457 -4.05313,6 c -5.62555,8.3277 -11.26412,19.8328 -18.22924,37.1955 -3.2664,8.1425 -9.07521,21.3295 -12.90848,29.3045 l -6.96957,14.5 -2.78682,8.5 -2.78683,8.5 -0.0709,14 -0.071,14 2.25611,7.1754 2.25612,7.1753 5.12557,7.6634 5.12558,7.6634 5.60071,4.3958 c 3.0804,2.4177 8.11234,5.7345 11.1821,7.3706 l 5.58138,2.9749 8.93622,2.5109 8.93621,2.511 15.56222,2.0189 15.56223,2.0189 5.48588,1.8874 c 3.01723,1.0381 7.45531,2.8922 9.8624,4.1202 l 4.37653,2.2327 5.19253,5.1926 5.19252,5.1925 3.51971,7.448 3.51971,7.4481 3.14191,10.84 3.14192,10.8401 2.53241,4.9974 2.5324,4.9975 4.35131,4.3513 4.35131,4.3513 4.90891,2.4876 c 6.5319,3.3099 14.64237,5.2976 26.7661,6.5596 l 10,1.0409 73.5,2.5142 c 77.39686,2.6476 107.38031,3.986 125.5,5.6021 l 11,0.981 57,0.9879 57,0.9879 364.00003,12.8615 c 200.2,7.0738 365.575,12.9117 367.5,12.973 1.925,0.061 7.2511,-0.3198 11.8359,-0.8469 z M 2050.5,1716.8486 c -1.65,-0.604 -4.2942,-2.2795 -5.8761,-3.7234 l -2.8761,-2.6252 -1.8519,-4 -1.852,-4 -0.022,-19.0719 -0.022,-19.0718 -1.5923,-4.6733 -1.5924,-4.6732 0.5722,-28.2549 c 0.3147,-15.5402 0.932,-34.5549 1.3717,-42.2549 l 0.7995,-14 1.7207,-3.2003 1.7206,-3.2004 0.01,-6.7996 0.01,-6.7997 1.0466,-3.7689 1.0466,-3.7689 3.4407,-3.4406 3.4406,-3.4407 4.2572,-1.1636 4.2571,-1.1637 4.5,1.1785 4.5,1.1785 3.6122,3.5131 3.6122,3.5131 1.1378,3.7976 1.1378,3.7976 0,24.134 c 0,13.2737 0.1474,24.134 0.3276,24.134 0.1802,0 3.1238,-1.1362 6.5414,-2.5249 l 6.2138,-2.5249 11.8912,-2.9037 c 6.5402,-1.5971 13.8858,-3.2028 16.3236,-3.5684 l 4.4325,-0.6647 0.672,-16.1567 c 0.3696,-8.8862 1.1348,-20.6739 1.7005,-26.1949 0.5656,-5.521 1.3522,-19.921 1.748,-32 l 0.7195,-21.9618 1.8713,-3.8392 1.8712,-3.8393 3.7722,-2.4963 3.7722,-2.4963 3.9549,-0.5305 3.9549,-0.5305 3.7024,1.2219 3.7023,1.2219 3.2458,2.8498 3.2458,2.8498 3.1203,6.7944 3.1203,6.7943 2.0271,9.5 c 3.3984,15.9266 4.9858,27.6703 6.5603,48.5335 l 1.5068,19.9665 8e-4,40.5 8e-4,40.5 -1.8961,11.622 -1.896,11.622 -1.2287,2.378 c -1.7779,3.4411 -5.0775,6.8593 -8.179,8.473 l -2.7004,1.405 -4.5895,0 -4.5895,0 -3.917,-1.9983 -3.917,-1.9983 -2.6231,-4.4759 -2.623,-4.4759 0.5703,-7.7758 c 0.3136,-4.2767 0.8424,-18.0184 1.175,-30.5372 l 0.6048,-22.7614 -2.6891,1.0224 c -1.479,0.5623 -6.5843,1.6612 -11.3452,2.442 -4.7608,0.7808 -12.6294,2.3551 -17.4857,3.4985 l -8.8296,2.079 -8.2013,3.3949 c -4.5107,1.8672 -9.8748,4.3824 -11.9203,5.5892 l -3.7191,2.1944 -0.035,12.6512 -0.035,12.6512 -1.7898,20.5984 -1.7897,20.5984 -2.2257,3.6012 -2.2256,3.6012 -3.3198,2.0517 -3.3198,2.0518 -4.3798,0.472 -4.3798,0.4719 -3,-1.098 z m 600.1552,-18.3072 -3.8448,-1.3709 -2.5341,-2.3353 -2.5341,-2.3352 -1.3711,-3.2179 -1.3711,-3.2179 0,-3.967 0,-3.967 1.0636,-2.8151 c 1.5386,-4.0721 5.4145,-7.7763 13.4047,-12.8105 l 7.0317,-4.4304 5,-5.7357 c 2.75,-3.1546 8.198,-9.7337 12.1066,-14.6203 l 7.1066,-8.8846 5.8097,-10.1668 c 3.1954,-5.5917 7.7271,-13.103 10.0706,-16.6917 l 4.2608,-6.5249 3.959,-2.2251 3.959,-2.2251 4.8639,0.016 4.8638,0.016 3.925,2.2336 3.925,2.2335 2.325,4.4073 2.325,4.4073 0,3.217 0,3.2169 -1.3855,3.8758 c -0.762,2.1316 -5.6664,11.0757 -10.8987,19.8757 l -9.5133,16 8.1488,1.1262 c 4.4818,0.6194 10.0646,1.7041 12.4063,2.4105 l 4.2576,1.2844 4.1225,3.5288 4.1225,3.5287 1.3699,3.2786 1.3699,3.2786 0,3.631 0,3.6309 -1.6195,3.4128 -1.6194,3.4127 -2.926,2.4621 -2.926,2.4621 -4.1432,1.1156 -4.1432,1.1157 -7.0614,-1.7663 -7.0613,-1.7662 -12.5,0 -12.5,0 -7.7139,2.1654 -7.7139,2.1655 -5.0746,3.1224 -5.0745,3.1224 -4.6205,1.3905 c -5.6112,1.6888 -6.7386,1.6822 -11.6474,-0.068 z m -402.7479,-5.869 -4.4073,-2.3277 -2.9328,-4.7353 -2.9328,-4.7352 -0.7014,-17.1871 -0.7014,-17.1871 -1.6539,-7.4965 c -0.9096,-4.1231 -2.3118,-13.1204 -3.1158,-19.9939 l -1.4619,-12.4973 0,-53.0979 0,-53.0978 -3.9549,-1.185 -3.955,-1.1849 -3.081,-2.5925 c -1.6945,-1.4258 -3.7398,-3.8665 -4.545,-5.4237 l -1.4641,-2.8312 0,-5.0993 0,-5.0993 1.4641,-2.8312 c 0.8052,-1.5572 2.8507,-3.998 4.5455,-5.4241 l 3.0813,-2.5928 4.0672,-1.0952 4.0671,-1.0951 4.1374,0.6666 c 5.6675,0.9132 14.5174,4.5439 20.6173,8.4582 l 5.0808,3.2603 2.7197,4.6263 2.7196,4.6263 0.5717,66.5 0.5717,66.5 3.2245,16.5 3.2245,16.5 -0.2962,16.5 -0.2962,16.5 -2.4011,3.3665 -2.401,3.3666 -4.099,1.8615 -4.0989,1.8615 -3.5927,0.022 -3.5927,0.022 -4.4073,-2.3276 z M 1320,1692.3794 c -21.8267,-3.8351 -33.4476,-8.2552 -48.8417,-18.5772 l -7.6583,-5.1351 -8.0481,-8.0835 -8.0482,-8.0836 -7.873,-12.4915 -7.873,-12.4915 -7.9193,-17.0085 c -18.7885,-40.3523 -21.662,-47.6161 -26.7916,-67.7238 l -2.1134,-8.2847 -5.9574,-11.9055 -5.9574,-11.9055 -5.3673,-7.5945 -5.3673,-7.5945 -13.342,-14.8706 c -7.3381,-8.1788 -16.449,-18.5188 -20.2465,-22.9776 -7.9598,-9.3461 -9.2353,-10.4422 -16.3123,-14.0168 l -5.2167,-2.635 -7.0147,0 -7.0147,0 -6.7685,1.1558 -6.7686,1.1559 -4.7922,-0.7235 -4.7922,-0.7234 -3.5089,-3.0808 c -1.9299,-1.6945 -4.1609,-4.3417 -4.9578,-5.8828 l -1.4489,-2.8019 0,-4.7996 0,-4.7997 1.9111,-3.1342 1.9111,-3.1341 3.4726,-2.6487 3.4725,-2.6486 10.3626,-2.0355 10.3626,-2.0354 12.5,0.3571 12.5,0.3571 10.0357,5.1127 10.0356,5.1127 5.2063,4.1153 5.2062,4.1153 5.2581,6.3023 c 2.892,3.4663 12.9615,14.9435 22.3767,25.505 l 17.1187,19.2026 6.5415,9.7282 6.5414,9.7282 5.9832,12 5.9832,12 2.0967,6.5 c 1.1532,3.575 3.6929,12.0411 5.6439,18.8135 l 3.5473,12.3136 4.3713,9.6864 c 2.4043,5.3276 8.1858,17.8343 12.8479,27.7926 l 8.4766,18.1062 7.5331,11.4564 7.5332,11.4565 4.3317,3.5475 c 2.3824,1.9511 7.5085,5.6018 11.3911,8.1126 l 7.0595,4.5651 5.9454,2.0028 c 3.2699,1.1016 8.9212,2.5211 12.5585,3.1545 l 6.6131,1.1516 18.882,-0.3487 18.8821,-0.3486 7.6409,-3.0817 7.6408,-3.0816 7.3592,-4.8421 7.3591,-4.8422 6.5409,-6.5878 6.541,-6.5879 12.4483,-18.4693 c 6.8465,-10.1582 15.639,-23.6444 19.5388,-29.9694 10.7856,-17.4927 19.0243,-30.1415 22.0129,-33.7961 l 2.6955,-3.296 2.9953,-1.5489 2.9952,-1.5489 4.8041,0.037 4.804,0.037 3.0103,1.5567 3.0103,1.5567 2.745,3.5988 2.7449,3.5988 0.4112,5.6844 0.4112,5.6844 -1.5335,3.6701 c -1.8048,4.3195 -15.8963,26.552 -38.1273,60.1542 l -15.9519,24.1114 -10.5481,10.5538 -10.5481,10.5537 -8.881,5.8184 c -10.1405,6.6435 -17.4936,10.1547 -29.619,14.1436 l -8.5,2.7962 -23,0.2265 c -12.65,0.1246 -24.125,0.029 -25.5,-0.2128 z m 1393.5204,-109.6662 -3.9796,-2.254 -2.254,-3.9796 -2.2539,-3.9796 -0.016,-4.7997 -0.017,-4.7996 1.6538,-3.2004 1.6538,-3.2003 9.1203,-9 9.1202,-9 4.976,-8.9929 c 2.7367,-4.9461 6.3189,-10.5256 7.9603,-12.399 l 2.9844,-3.406 3.2335,-1.3511 3.2335,-1.351 3.5642,0 3.5642,0 3.2646,1.364 3.2646,1.3641 2.6174,3.1105 2.6173,3.1106 1.1883,3.6004 1.1882,3.6004 -0.6346,4.2319 -0.6346,4.2318 -5.9042,10.4432 -5.9042,10.4431 -5.4359,6.7683 -5.436,6.7684 -6.8775,6.111 -6.8776,6.111 -3.2179,1.3706 -3.2179,1.3707 -4.2821,-0.016 -4.2821,-0.016 -3.9796,-2.2539 z m 37.9796,-86.1602 -4,-1.4496 -3.2081,-3.6698 -3.208,-3.6698 -1.6287,-7.3204 -1.6286,-7.3205 1.5629,-10.3114 c 6.3867,-42.1359 7.9972,-51.9663 9.3074,-56.8115 l 1.4872,-5.5 4.4079,-4.1207 4.408,-4.1207 0,-1.2432 c 0,-0.6837 0.924,-2.8871 2.0533,-4.8964 l 2.0533,-3.6534 3.3494,-2.295 3.3493,-2.295 5.5295,-0.5707 5.5295,-0.5707 1.1936,-4.9755 1.1936,-4.9756 3.0227,-3.4426 c 1.6625,-1.8935 4.2835,-4.0947 5.8246,-4.8916 l 2.8019,-1.4489 4.6635,0 4.6635,0 3.6533,2.0533 3.6534,2.0533 2.3825,3.4771 2.3825,3.477 0.4527,4.7197 0.4527,4.7196 -1.6065,10.8075 -1.6064,10.8074 -1.4067,2.6926 c -1.8905,3.6186 -6.4544,7.8269 -9.9003,9.1289 l -2.8151,1.0636 -8.2269,0 -8.2269,0 -2.8793,18.1166 -2.8794,18.1166 1.1609,1.6334 c 0.6385,0.8984 2.0656,3.303 3.1713,5.3436 l 2.0105,3.7101 0,4.7899 0,4.7898 -2.0917,3.4312 c -1.1505,1.8872 -3.1223,4.2418 -4.3817,5.2324 l -2.2899,1.8013 -0.6986,3.7675 -0.6985,3.7676 -1.9665,3.1996 -1.9664,3.1996 -3.2458,2.006 -3.2458,2.006 -3.9538,0.5457 -3.9538,0.5458 -4,-1.4497 z M 1274,1486.3245 c -8.5216,-1.3743 -26.9058,-5.6401 -32.2251,-7.4774 -10.5429,-3.6417 -31.8989,-12.7443 -38.306,-16.3274 -10.8202,-6.051 -24.072,-17.3682 -33.9804,-29.0197 -5.4214,-6.3751 -17.9319,-25.0078 -23.2325,-34.6017 -2.2482,-4.0691 -5.9138,-9.8265 -8.1459,-12.7942 -5.3058,-7.0546 -11.2459,-18.7189 -20.1125,-39.4943 l -7.2085,-16.8903 -13.0359,-25.6097 c -7.1698,-14.0854 -15.1625,-28.9848 -17.7614,-33.1098 -2.599,-4.125 -6.1969,-10.425 -7.9955,-14 -1.7985,-3.575 -4.9569,-8.975 -7.0186,-12 l -3.7486,-5.5 -6.3645,-6.3622 c -9.0344,-9.031 -24.6136,-21.3905 -36.8646,-29.2459 -5.775,-3.7029 -16.575,-10.6288 -24,-15.3909 -7.425,-4.762 -17.775,-11.144 -23,-14.1821 l -9.5,-5.5239 -15,-6.7782 -15,-6.7781 -9,-2.6028 -9,-2.6029 -13.38948,-1.0032 -13.38948,-1.0032 -4.36221,-2.5565 -4.3622,-2.5564 -1.99832,-3.917 -1.99831,-3.917 0,-4.5895 0,-4.5895 1.40499,-2.7004 c 1.94464,-3.7375 5.44965,-6.8238 9.82654,-8.6526 l 3.70423,-1.5477 8.28212,0.018 8.28212,0.018 9.25132,1.4084 9.25132,1.4084 9.24868,2.7108 c 21.476,6.2948 50.12764,20.3857 76.74868,37.7452 6.325,4.1245 15.6892,10.0612 20.8094,13.1925 17.6802,10.8128 41.6609,29.7587 52.5394,41.5088 7.5708,8.1774 14.9125,18.6649 19.7172,28.1658 2.135,4.2217 5.7368,10.5217 8.0041,14 2.2673,3.4783 7.5805,13.2992 11.807,21.8242 4.2266,8.525 10.2299,20.225 13.3406,26 l 5.6558,10.5 8.1225,19 c 8.8071,20.6014 14.4669,31.7715 18.9962,37.4902 1.5912,2.009 5.4566,8.1206 8.5898,13.5813 6.583,11.4732 17.2432,27.1124 22.3733,32.8231 4.857,5.4068 17.2948,15.1917 22.9585,18.0617 2.568,1.3013 10.7826,4.8364 18.2547,7.8557 l 13.5855,5.4897 11.5864,2.5992 c 6.3724,1.4295 12.7703,2.5991 14.2173,2.5991 l 2.631,0 8.6557,-6.2135 8.6556,-6.2135 8.5,-8.0365 c 9.7541,-9.2222 12.8642,-13.0848 18.9512,-23.5365 2.4023,-4.125 7.9207,-12.766 12.2631,-19.2022 l 7.8951,-11.7023 3.4734,-2.1467 3.4734,-2.1467 3.98,-0.5338 3.98,-0.5338 4.5091,1.722 4.5091,1.7221 2.6565,3.4828 2.6565,3.4829 0.4463,5.3816 0.4463,5.3817 -0.5944,2.3683 -0.5944,2.3683 -8.118,12.4279 c -4.4649,6.8353 -9.2572,14.6779 -10.6495,17.4279 -1.3924,2.75 -4.9412,8.2161 -7.8863,12.147 l -5.3546,7.147 -10.5812,9.8121 c -5.8196,5.3966 -14.3598,12.7555 -18.9782,16.353 -4.6184,3.5975 -9.9906,7.8311 -11.9382,9.408 l -3.5411,2.8672 -3.7521,1.3389 -3.752,1.339 -8,-0.092 c -4.4,-0.051 -9.125,-0.2737 -10.5,-0.4954 z m 567.4214,-33.2208 -4.0786,-1.8524 -2.168,-2.7562 -2.168,-2.7562 -1.0995,-4.0833 -1.0996,-4.0834 0.5424,-3.3425 c 0.5858,-3.6096 9.384,-28.085 10.687,-29.7297 0.4358,-0.55 1.959,-4.1 3.385,-7.8889 l 2.5928,-6.8888 -6.7574,0.6934 c -3.7166,0.3814 -12.3583,1.0909 -19.2038,1.5766 l -12.4463,0.8831 -0.8037,-0.4967 -0.8037,-0.4967 0,-2.4907 0,-2.4906 -1.4491,-2.8022 -1.449,-2.8022 -7.1522,-6.0651 -7.1521,-6.0652 -2.6181,-0.6571 c -1.44,-0.3614 -5.1158,-2.1988 -8.1685,-4.083 l -5.5504,-3.4259 -4.2624,0 -4.2624,0 -3.2335,1.351 -3.2335,1.3511 -3.1237,3.5577 -3.1237,3.5577 -1.4989,4.8412 c -0.8244,2.6627 -2.0297,7.4211 -2.6786,10.5742 -0.6488,3.1532 -1.4866,5.918 -1.8618,6.1442 -0.6497,0.3917 -21.84,1.5485 -95.6821,5.2234 l -33,1.6424 -12,-1.1278 -12,-1.1277 -6,-1.5542 -6,-1.5541 -8.1307,-3.9858 -8.1307,-3.9858 -6.1457,-5.5615 -6.1457,-5.5616 -4.4463,-6.2309 -4.4463,-6.231 -3.5996,-7.5797 -3.5996,-7.5797 -1.5176,-8.7943 -1.5176,-8.7942 1.0713,-7.2031 1.0713,-7.2031 2.0608,-5.2283 c 1.1335,-2.8756 3.666,-7.6466 5.6278,-10.6022 l 3.5669,-5.3737 5.1408,-4.5427 5.1409,-4.5427 8,-3.8773 8,-3.8774 8,-1.9898 c 9.0701,-2.2559 14.493,-3.0909 66,-10.1622 l 37,-5.0796 35,-5.9627 c 44.6573,-7.6079 87.5462,-15.9245 108.1557,-20.9724 l 16.1557,-3.957 16.2116,-5.5694 16.2116,-5.5693 15.1327,-6.5402 c 8.323,-3.5972 22.1077,-10.0692 30.6327,-14.3822 l 15.5,-7.8419 10,-6.675 c 5.5,-3.6712 14.275,-10.0326 19.5,-14.1363 l 9.5,-7.4614 42.8454,-43.1623 c 23.5649,-23.7393 47.6129,-48.3374 53.4398,-54.6624 14.259,-15.4777 31.1953,-36.88 51.9445,-65.64195 20.5484,-28.48363 28.1086,-38.08394 38.7558,-49.21396 l 7.9935,-8.3559 8.0105,-6.05784 8.0105,-6.05784 7.3428,-3.4094 7.3427,-3.40939 7.1573,-1.52464 7.1572,-1.52465 7.5,0.55593 7.5,0.55593 5.5872,1.93197 c 7.532,2.6045 10.4162,4.17569 17.6583,9.61971 l 6.1617,4.63176 5.1703,6.49765 c 2.8437,3.57371 10.5846,14.46377 17.2021,24.20014 6.6174,9.73636 15.8642,23.32748 20.5485,30.20248 l 8.5168,12.5 4.3782,9.2227 4.3782,9.2226 2.4565,9.6838 2.4565,9.6839 1.1223,12.0935 1.1222,12.0935 -0.6214,16.5 -0.6214,16.5 -1.9316,13 c -3.8302,25.7772 -7.9801,40.7651 -20.7665,75 l -7.4698,20 -7.3327,15 -7.3328,15 -8.2066,12.5 c -4.5137,6.875 -12.605,18.35 -17.9808,25.5 l -9.7741,13 -7.7217,8.2764 -7.7217,8.2763 -10.5897,7.9512 -10.5896,7.9511 -13.5492,6.9397 c -16.2629,8.3298 -30.0106,13.9001 -45.8105,18.5616 -14.1757,4.1824 -63.0464,16.3748 -79.8666,19.9253 -23.7382,5.0109 -71.6955,11.0155 -116.8721,14.6331 l -26,2.0821 -22.75,0.6052 -22.75,0.6051 0,3.0363 c 0,5.1776 2.1263,14.6486 6.1434,27.364 l 3.8566,12.2074 0,2.7992 c 0,1.5396 -0.4411,4.3374 -0.9803,6.2173 l -0.9803,3.4181 -2.7697,2.9146 c -1.5233,1.603 -3.9849,3.5494 -5.47,4.3253 l -2.7004,1.4107 -4.6635,0 -4.6635,0 -3.8881,-2.1852 -3.8881,-2.1853 -2.748,2.6216 c -3.2941,3.1425 -7.2428,4.7567 -11.5632,4.7269 l -3.1849,-0.022 -4.0786,-1.8524 z m 628.4332,-4.5595 c -5.6524,-2.4875 -15.7208,-8.2356 -19.2132,-10.9689 l -1.8586,-1.4546 0.611,-8.3104 c 0.3362,-4.5707 0.8861,-14.4978 1.2222,-22.0603 l 0.611,-13.75 0.6783,0 c 0.373,0 2.6358,1.9945 5.0282,4.4323 2.3925,2.4377 6.2808,5.8189 8.6408,7.5136 l 4.2908,3.0815 0.4361,-0.7637 c 0.2399,-0.42 0.9963,-2.5637 1.681,-4.7637 2.2547,-7.245 12.3084,-32.5 12.9379,-32.5 0.3391,0 2.6726,1.6875 5.1855,3.75 2.5129,2.0625 8.6918,7.125 13.7309,11.25 l 9.1619,7.5 0,1 c 0,0.55 -1.3154,4.375 -2.9184,8.5 -1.6031,4.125 -4.5617,13.125 -6.5749,20 l -3.6602,12.5 -3.1241,5.8705 -3.1241,5.8705 -3.8567,2.5522 -3.8566,2.5522 -5.1898,0.3417 -5.1898,0.3416 -5.6454,-2.4845 z M 2231,1446.6288 c -3.025,-0.726 -6.734,-1.827 -8.2423,-2.4467 l -2.7424,-1.1268 -4.455,-4.1065 -4.4551,-4.1066 -1.6842,-4.4099 -1.6842,-4.4099 0.5518,-10.2612 c 0.3034,-5.6437 1.0465,-14.234 1.6512,-19.0896 l 1.0995,-8.8284 1.9169,-3.6716 1.9168,-3.6716 6.8135,-7.1672 6.8135,-7.1672 4,-1.0772 c 2.2,-0.5925 5.9555,-1.0798 8.3456,-1.0828 l 4.3457,-0.01 3.1118,-2.2158 3.1118,-2.2158 6.1179,-0.3896 6.1178,-0.3895 4.9247,2.5189 4.9247,2.519 3.7006,3.8364 3.7007,3.8364 2.2815,5 2.2815,5 -0.024,12 -0.024,12 -2.1044,7 c -1.1575,3.85 -2.4134,8.8 -2.791,11 l -0.6864,4 -2.8536,5 -2.8535,5 -3.3142,3.1993 -3.3141,3.1993 -4,1.7153 -4,1.7152 -11.5,0.3098 -11.5,0.3099 -5.5,-1.32 z m 353.2451,-107.0668 -3.255,-1.4696 -2.6276,-2.7962 c -1.4452,-1.5379 -3.3429,-4.3712 -4.2171,-6.2962 l -1.5894,-3.5 -0.6572,-20 c -0.3615,-11 -1.1904,-50.825 -1.8422,-88.5 -0.6517,-37.675 -1.4935,-72.0558 -1.8708,-76.4019 l -0.6858,-7.9019 -4,-1.3903 c -2.2,-0.7647 -14.35,-4.257 -27,-7.7605 l -23,-6.3702 -18.5,-3.0326 -18.5,-3.0327 -13.5,-0.6803 -13.5,-0.6802 -3.4864,-1.4224 c -1.9174,-0.7824 -4.5643,-2.4135 -5.8819,-3.6247 l -2.3955,-2.2023 -1.8462,-4 -1.8461,-4 -0.022,-3.1849 c -0.03,-4.3284 1.5785,-8.2518 4.7916,-11.6883 l 2.6864,-2.8731 3.2077,-1.3726 3.2076,-1.3726 17.7924,0.9715 17.7923,0.9715 20.2766,3.4605 20.2766,3.4606 20.2234,5.6361 c 26.7469,7.4543 34.8369,10.1014 43.2234,14.1434 l 7,3.3738 3.1268,3.5111 3.1268,3.5111 1.1455,4.226 1.1455,4.2259 0.9582,24.5 c 0.5269,13.475 1.4325,56 2.0124,94.5 l 1.0543,70 1.5813,5.3232 1.5814,5.3232 -0.6447,4.0318 c -0.3546,2.2175 -1.3064,5.3112 -2.1151,6.8751 l -1.4703,2.8433 -3.5988,2.745 -3.5988,2.7449 -5.6523,0.3226 -5.6522,0.3225 -3.2549,-1.4696 z M 1199.5,1219.5884 c -3.8643,-1.7176 -7.0074,-5.1653 -8.9523,-9.8199 l -1.5477,-3.7043 0,-3.8236 0,-3.8236 3.4193,-11.9585 c 4.4631,-15.6091 4.5462,-15.8075 10.9846,-26.216 l 5.5113,-8.9096 4.2924,-3.9509 c 6.4378,-5.9257 12.9295,-10.1049 23.1142,-14.8806 l 9.1782,-4.3037 5.2992,-1.0988 5.2992,-1.0989 9.613,0 9.613,0 10.5878,3.7085 10.5878,3.7085 16,0.042 16,0.042 7.5337,-3.6836 7.5338,-3.6835 4.6785,-4.1183 4.6786,-4.1182 4.9094,-7.3402 4.9094,-7.3401 2.1283,-6.3022 2.1283,-6.3022 0,-4.2671 0,-4.2671 -2.1445,-8.7888 -2.1445,-8.7887 -0.03,-11 -0.03,-11 2.0382,-4.5699 2.0382,-4.5698 3.6126,-3.5086 3.6126,-3.5085 5.2733,-2.9216 5.2733,-2.9216 21.2494,-0.3211 21.2494,-0.3212 5.6909,1.6544 c 6.8186,1.9822 16.6073,6.8855 24.8103,12.4277 l 6,4.0538 12.653,0 12.6531,0 7.3148,-10.75 c 4.0231,-5.9125 10.1124,-14.7042 13.5317,-19.5372 l 6.2169,-8.78723 1.0005,-3.21279 c 0.5502,-1.76703 1.4796,-7.84293 2.0652,-13.502 l 1.0648,-10.28922 0.018,-11.71078 c 0.023,-15.05428 -1.8037,-46.8217 -3.1748,-55.21078 l -1.0624,-6.5 1.2018,-4.5 1.2018,-4.5 2.5396,-3.35611 2.5396,-3.3561 3.3361,-1.3939 3.3361,-1.39389 4.5817,0 4.5818,0 2.7004,1.40499 c 3.7764,1.96485 6.8281,5.46001 8.7193,9.98612 l 1.6144,3.86382 0.9062,13.62254 c 0.4984,7.49239 1.3532,18.34753 1.8996,24.12253 l 0.9934,10.5 -0.01,16 -0.01,16 -0.8808,7 c -0.4844,3.85 -1.3468,10.43376 -1.9164,14.63057 l -1.0356,7.63053 -1.6879,4.3695 c -1.8066,4.6768 -4.7796,9.3352 -21.931,34.3638 l -10.9605,15.9944 -5,5.039 -5,5.0389 -6.5,1.9667 -6.5,1.9666 -18,0 -18,0 -5.5958,-1.7331 -5.5959,-1.7331 -7.6532,-4.9961 c -4.2093,-2.7479 -9.5661,-6.0032 -11.9042,-7.2341 l -4.2509,-2.2381 -12.75,-0.3832 -12.75,-0.3831 0,1.6329 c 0,0.8982 1.4021,7.531 3.1158,14.7396 l 3.1159,13.1066 -1.9928,10.1108 -1.9928,10.1109 -3.135,8.0925 -3.135,8.0925 -5.9152,8.9075 c -3.2533,4.8991 -8.0288,11.294 -10.6122,14.2108 l -4.6971,5.3034 -7.1258,4.8033 c -8.8461,5.9628 -13.4576,8.3256 -23.9099,12.2507 l -8.2159,3.0853 -12.5716,0.5033 -12.5716,0.5033 -10.4284,-1.1882 -10.4284,-1.1881 -10.3776,-3.5566 -10.3776,-3.5566 -4.6224,0.6302 -4.6224,0.6302 -7,3.3295 -7,3.3295 -3.3066,2.7953 -3.3066,2.7952 -3.4617,5.4115 -3.4617,5.4115 -2.3618,8.202 c -1.299,4.5111 -2.6849,9.777 -3.0798,11.702 -0.3948,1.925 -1.7546,5.3048 -3.0218,7.5107 l -2.3039,4.0108 -3.9842,2.2392 -3.9842,2.2393 -4.3639,-0.039 -4.3638,-0.039 -3,-1.3333 z m 385.5,-313.20344 -6.5,-1.41422 -7,-3.34132 -7,-3.34132 -6.1534,-4.65618 -6.1533,-4.65617 -5.532,-7.23788 -5.5319,-7.23787 -4.017,-8.5 -4.017,-8.5 -1.5477,-7.70784 c -1.929,-9.60675 -1.9412,-14.27372 -0.066,-25.02994 l 1.4823,-8.49976 5.5633,-17.88123 c 9.5695,-30.75795 17.9855,-66.8121 23.9597,-102.64374 4.1979,-25.17777 5.572,-30.94809 8.9642,-37.64214 l 2.4683,-4.87105 4.0819,-3.49391 4.0818,-3.49391 4.4822,-1.25494 4.4823,-1.25495 5.7259,0.55017 5.7259,0.55016 11.1853,3.54069 11.1853,3.54068 8.8147,1.17781 8.8147,1.1778 10.0129,-0.60792 10.0128,-0.60793 8.2677,-1.56835 8.2678,-1.56836 9.8197,-3.41802 c 5.4008,-1.87991 16.2643,-6.14048 24.1411,-9.46792 7.8768,-3.32745 16.5758,-6.71939 19.3312,-7.53765 L 1737.363,628 l 3.6836,0 3.6837,0 2.5225,1.98418 2.5224,1.98419 0.6567,2.6165 0.6567,2.6165 -1.1749,3.64932 -1.175,3.64931 -4.3359,6.13228 -4.3358,6.13227 -7.1328,6.15428 c -7.7569,6.69269 -15.6991,12.19167 -31.9342,22.11043 l -10.5,6.41492 -7.5427,7.52791 -7.5426,7.52791 -4.6405,9.5 -4.6405,9.5 -2.5213,8.1575 -2.5213,8.15751 -0.9678,9.45888 -0.9677,9.45887 0.944,10.88362 c 1.1883,13.70025 2.1032,19.53576 6.5664,41.88362 l 3.5949,18 0.055,11.5 0.055,11.5 -1.7106,6.42776 -1.7106,6.42776 -3.1823,6.57224 -3.1822,6.57224 -8.0429,8.11116 -8.0429,8.11116 -8.5,4.0486 -8.5,4.0486 -7.1974,1.59024 -7.1974,1.59024 -10.8026,-0.10041 -10.8026,-0.10041 -6.5,-1.41422 z m 340.3188,-13.88761 -6.1811,-1.34365 -6.8054,-3.32685 -6.8054,-3.32685 -6.6218,-6.57382 -6.6217,-6.57381 -3.6547,-7.42619 -3.6546,-7.42618 -1.4697,-7 -1.4697,-7 -0.017,-7.34292 -0.017,-7.34291 2.052,-10.15709 2.052,-10.15708 4.3465,-13 c 6.0037,-17.95662 13.0686,-34.17361 23.0894,-53 4.684,-8.8 17.9094,-34.9 29.3898,-58 l 20.8735,-42 5.6811,-8.98952 c 3.1245,-4.94423 12.1176,-17.99423 19.9845,-29 19.1434,-26.78138 24.7667,-35.90865 38.8204,-63.01048 15.0129,-28.9515 19.6543,-37.22833 29.7939,-53.1303 10.6362,-16.68075 36.8957,-54.79882 47.7887,-69.3697 l 8.5973,-11.5 9.5154,-9.55958 9.5155,-9.55959 8.2227,-6.21459 c 15.9669,-12.06746 36.1796,-22.98498 56.734,-30.64381 12.6763,-4.72335 21.8231,-7.05124 35.8518,-9.12445 l 11.1915,-1.65391 18.5,0.56567 18.5,0.56567 16.5,2.08107 c 22.0166,2.77685 47.3157,7.2292 68.2972,12.01951 9.4615,2.16018 26.2028,5.98498 37.2028,8.49955 39.3661,8.99897 52.6757,13.21307 73.214,23.18105 l 11.214,5.44258 7.786,5.54073 c 4.2823,3.04741 10.1799,7.8626 13.1057,10.70042 l 5.3198,5.15968 4.8383,7.19633 4.8383,7.19633 2.2331,5.80367 2.233,5.80367 0.465,11 0.465,11 -2.1881,6.46183 c -2.6648,7.86967 -5.8263,13.39587 -11.0752,19.35892 l -3.9763,4.51726 -6.2363,3.89079 c -3.43,2.13994 -8.4863,4.83754 -11.2363,5.99468 l -5,2.10388 -8,1.67119 -8,1.67119 -30.5,0.85845 -30.5,0.85846 -14,1.62 -14,1.62001 -11.961,2.51823 c -16.4207,3.45715 -32.0391,8.31511 -51.539,16.03069 l -16.5,6.52861 -10.6406,5.4275 -10.6406,5.42751 -10.3594,6.88456 -10.3594,6.88457 -9.097,7.98192 -9.097,7.98192 -11.019,12.35392 c -6.0604,6.79465 -17.869,20.22891 -26.2412,29.85391 -8.3723,9.625 -25.2345,28.075 -37.4716,41 -28.69,30.30283 -28.8269,30.45735 -103.5873,116.94957 -34.9178,40.39726 -67.3381,77.74726 -72.0452,83 l -8.5583,9.55043 -7.4417,6.25069 -7.4417,6.2507 -6.6995,3.5273 -6.6995,3.52731 -7.7105,1.972 -7.7104,1.972 -5.5901,-0.0795 -5.59,-0.0795 -6.1812,-1.34365 z m -1161.22311,-27.94384 -4.40432,-1.43363 -5.24695,-3.61372 -5.24695,-3.61371 -2.54945,-3.69623 c -1.40219,-2.03292 -3.69194,-6.20144 -5.08832,-9.26336 l -2.53889,-5.56715 -4.05742,-15.93285 c -2.23159,-8.76308 -4.98776,-18.78984 -6.12483,-22.28169 l -2.0674,-6.34884 -3.35346,-1.40116 -3.35346,-1.40117 -14.35723,0 -14.35723,0 -11.41972,2.0563 -11.41972,2.0563 -18.50517,5.85184 c -10.17784,3.21852 -21.22925,6.38433 -24.55869,7.03515 l -6.05352,1.18331 -4.20361,-1.13191 -4.20361,-1.13192 -3.44065,-3.44065 -3.44065,-3.44065 -1.04664,-3.76888 -1.04665,-3.76889 0.005,-54 0.005,-54 1.02346,-12 1.02345,-12 1.89629,-6 c 1.04297,-3.3 2.20697,-7.575 2.58667,-9.5 1.37498,-6.97074 6.1388,-13.7108 11.76857,-16.65067 l 2.81907,-1.47212 7.35385,-1.40703 7.35385,-1.40702 15.60673,-1.09131 15.60674,-1.09131 5.22034,2.42318 5.22035,2.42318 12.5,10.48784 c 14.78328,12.40358 21.74658,19.68644 32.33908,33.82321 l 7.83909,10.46205 8.49902,8.71412 8.49903,8.71413 4.58333,3.03587 4.58334,3.03588 16.16346,0 16.16345,0 28.4151,-1.98551 c 15.62831,-1.09203 33.5901,-2.49215 39.9151,-3.11138 l 11.5,-1.12587 4.30275,1.16413 4.30274,1.16412 3.81604,3.81604 3.81603,3.81603 1.26325,5.26583 1.26326,5.26584 -0.57858,6.19583 -0.57857,6.19583 -5.63203,14.91956 c -14.83418,39.29655 -39.47734,78.2217 -64.31237,101.58472 l -8.02403,7.54843 -5.31924,3.47747 c -2.92559,1.91261 -7.34425,4.29336 -9.81925,5.29056 l -4.5,1.8131 -11,0.34621 -11,0.3462 -4.40431,-1.43363 z m 19.63121,-35.66335 4.35834,-2.10984 7.70988,-7.64016 c 13.36708,-13.2462 20.94342,-23.84945 38.18999,-53.44771 l 6.29743,-10.80755 3.78716,-9.18069 c 2.08294,-5.04937 3.62271,-9.34514 3.42171,-9.54613 -0.201,-0.201 -7.70629,0.24371 -16.67843,0.98823 L 814.5,738.5 l -33.5,0 -33.5,0 -6.12006,-3.1988 -6.12006,-3.1988 -7.37994,-5.91232 c -4.05897,-3.25178 -10.78241,-9.46232 -14.94099,-13.8012 L 705.37789,704.5 698.36527,695 c -10.17243,-13.78058 -14.44063,-18.46366 -25.74725,-28.25 l -10.10929,-8.75 -8.18927,0 -8.18926,0 -2.36656,0.89976 -2.36655,0.89977 -1.34228,3.85023 -1.34228,3.85024 -0.45083,49.25 -0.45083,49.25 0.74949,0 c 0.41223,0 5.54231,-1.54941 11.40018,-3.44313 l 10.65067,-3.44314 12.06232,-2.05803 12.06231,-2.05803 14.88208,-0.62489 14.88208,-0.6249 8.96206,1.11574 8.96206,1.11575 7.2935,3.46366 c 4.01143,1.90502 8.8883,4.68008 10.83749,6.1668 l 3.54399,2.70314 2.461,4.19937 c 3.42649,5.84687 6.81072,16.08169 12.06494,36.48766 l 4.50598,17.5 1.45754,2.25 1.45755,2.25 1.66122,0 c 0.91367,0 3.62248,-0.94943 6.01957,-2.10984 z m 653.8819,-421.88992 c -18.8841,-2.36301 -29.3886,-5.95587 -56.8238,-19.43557 l -19.7151,-9.68655 -7.2849,-4.76815 c -4.0068,-2.62249 -9.953,-7.20757 -13.2139,-10.18907 l -5.9288,-5.4209 -5.9249,-7.97644 -5.9248,-7.97644 -4.2547,-8.52356 c -4.5764,-9.16796 -7.6645,-17.96231 -9.665,-27.52356 l -1.2553,-6 -0.036,-13 -0.036,-13 1.8054,-8.5 1.8055,-8.5 2.9905,-7.19119 2.9906,-7.19118 4.8071,-6.84512 4.8071,-6.84511 5.4726,-5.00158 c 7.2421,-6.61891 33.7501,-27.17059 41.0901,-31.85724 3.198,-2.04196 8.823,-4.9907 12.5,-6.55276 l 6.6854,-2.8401 8,-1.78537 8,-1.78537 16,0.12139 16,0.1214 11.5,2.44898 11.5,2.44899 8,3.11889 8,3.1189 5,3.78726 5,3.78726 2.9521,5.47098 2.9521,5.47097 -0.016,6.5 -0.016,6.5 -1.8256,5.5 c -1.0041,3.025 -3.3611,8.57275 -5.2378,12.32834 l -3.4121,6.82834 -4.3433,4.34322 -4.3432,4.34322 -8.8547,4.19309 c -4.8702,2.3062 -10.3178,5.28976 -12.1059,6.63013 l -3.251,2.43705 -1.499,2.89864 -1.4989,2.89865 0,3.79966 0,3.79966 1.8782,3.08004 1.8782,3.08003 3.5192,1.66997 3.5192,1.66996 3.1365,0 3.1366,0 9.2123,-3.61566 9.2123,-3.61567 7.2604,-0.51651 7.2603,-0.51651 6.4041,3.15272 6.4041,3.15272 3.093,3.52274 c 1.7012,1.93751 4.4124,6.1365 6.0251,9.33109 l 2.932,5.80834 1.6942,8.36117 1.6942,8.36117 -0.5443,9.5372 -0.5443,9.5372 -2.1504,10.5 -2.1504,10.5 -3.4499,7.19454 -3.4499,7.19454 -4.8667,4.99645 -4.8667,4.99645 -6.9473,4.49417 c -3.821,2.4718 -9.6136,5.67795 -12.8724,7.12479 l -5.9251,2.63062 -7.9167,1.89992 -7.9168,1.89992 -9.5832,0.46557 -9.5833,0.46558 -6.8912,-0.86231 z m -22.9073,-57.95976 3.2014,-1.95203 1.6599,-3.20994 1.6599,-3.20994 -0.5022,-4.45593 -0.5022,-4.45593 -2.9875,-2.98748 -2.9875,-2.98748 -4.3717,-0.45158 -4.3716,-0.45159 -3.5,1.92341 -3.5,1.92341 -1.9095,4.5755 -1.9094,4.57551 1.7745,4.64645 1.7745,4.64646 3.1349,1.9116 3.135,1.9116 3.5,0 3.5,0 3.2015,-1.95204 z m -27.137,-76.08033 3.3005,-2.03985 1.6721,-4.37825 1.6721,-4.37825 -1.1714,-3.54918 -1.1713,-3.54917 -3.0103,-2.53302 -3.0103,-2.53301 -2.609,-0.6548 -2.6089,-0.6548 -4.0314,1.40509 -4.0314,1.40509 -2.2826,3.39788 -2.2826,3.39789 0,3.40177 0,3.40178 1.5485,2.99456 1.5486,2.99457 3.2014,1.95203 3.2015,1.95204 3.382,0.004 3.3819,0.004 3.3006,-2.03985 z m 923.5859,1509.01475 3.6504,-1.0139 11.3496,-6.83 c 6.2423,-3.7565 12.7361,-7.545 14.4308,-8.4189 1.6946,-0.8738 6.0795,-4.3061 9.7442,-7.6272 l 6.6632,-6.0384 3.7557,-1.9079 c 2.0656,-1.0493 7.4439,-3.0698 11.9516,-4.4898 l 8.1959,-2.582 6.8041,-0.6691 6.8041,-0.6691 9.5,-3.8823 c 10.674,-4.362 26.2858,-11.8939 25.7545,-12.4251 -0.3809,-0.3809 -23.4095,7.2894 -39.1945,13.0549 -11.6609,4.2591 -20.5499,6.418 -41.1272,9.9886 l -15.0672,2.6145 -12.4328,3.3587 c -6.838,1.8474 -16.7078,4.818 -21.9328,6.6014 -5.225,1.7834 -15.7578,5.364 -23.4062,7.9568 l -13.9063,4.7142 6.9962,2.125 6.9961,2.125 2.4772,1.9486 2.4773,1.9486 3.9328,0.4031 c 2.1631,0.2218 7.9829,0.4763 12.9329,0.5657 l 9,0.1625 3.6504,-1.0139 z m -962.8227,-983.33847 3.2635,-1.36357 1.7804,-2.7172 1.7804,-2.71721 0.5334,-3.28743 0.5335,-3.28744 -1.7794,-3.74985 -1.7794,-3.74985 -3.0801,-1.8782 -3.08,-1.8782 -3.0156,-0.004 -3.0156,-0.004 -3.4071,1.82727 -3.4072,1.82726 -1.8272,3.40713 -1.8273,3.40714 0,2.81526 0,2.81526 1.5485,2.99456 1.5486,2.99457 3.2014,1.95203 3.2015,1.95204 2.7821,0.004 2.7821,0.004 3.2635,-1.36357 z m -94.2611,-33.90233 3.3624,-2.2659 1.4048,-3.69115 1.4049,-3.69115 -0.6591,-3.51351 -0.6592,-3.51352 -2.5245,-3.00018 -2.5245,-3.00018 -3.6541,-1.00897 -3.6542,-1.00897 -3.5967,0.96848 -3.5967,0.96848 -2.1182,2.26123 c -4.3453,4.63859 -5.2243,9.90893 -2.5815,15.47817 l 1.6699,3.51919 3.0801,1.8782 3.08,1.8782 4.1021,0.004 4.1021,0.004 3.3624,-2.2659 z m 115.894,-36.335 4.001,-1.60089 2.1418,-3.46547 2.1417,-3.46546 -0.524,-4.64929 -0.524,-4.64929 -3.5839,-3.28435 -3.5838,-3.28435 -4.3668,0 -4.3668,0 -3.3979,2.28656 -3.3979,2.28655 -1.2872,3.9058 -1.2872,3.90581 0.6063,2.76068 0.6064,2.76068 2.096,2.66469 2.0961,2.66469 3.0848,1.34313 c 4.0059,1.74416 4.7738,1.72972 9.5454,-0.17949 z m -80.6785,-39.76108 c 1.7699,-0.7491 4.071,-2.31954 5.1137,-3.48987 l 1.8958,-2.12789 0.3965,-4.76013 0.3964,-4.76013 -1.3068,-2.46998 -1.3068,-2.46999 -3.4855,-2.36832 -3.4854,-2.36832 -4.4657,0.48978 -4.4656,0.48977 -3.2844,3.58384 -3.2843,3.58385 0,4.79218 0,4.79218 1.6167,2.30818 c 0.8892,1.2695 3.0267,3.16795 4.75,4.21877 l 3.1333,1.91058 2.2821,0.004 c 1.2552,0.002 3.7302,-0.60915 5.5,-1.35824 z"
     id="path2987"
     style="fill:#000000" />
</svg>
