<?xml version="1.0" encoding="UTF-8" standalone="no"?>
<!-- Created with Inkscape (http://www.inkscape.org/) -->

<svg
   xmlns:dc="http://purl.org/dc/elements/1.1/"
   xmlns:cc="http://creativecommons.org/ns#"
   xmlns:rdf="http://www.w3.org/1999/02/22-rdf-syntax-ns#"
   xmlns:svg="http://www.w3.org/2000/svg"
   xmlns="http://www.w3.org/2000/svg"
   xmlns:xlink="http://www.w3.org/1999/xlink"
   version="1.1"
   width="2912"
   height="1902"
   id="svg2">
  <metadata
     id="metadata8">
    <rdf:RDF>
      <cc:Work
         rdf:about="">
        <dc:format>image/svg+xml</dc:format>
        <dc:type
           rdf:resource="http://purl.org/dc/dcmitype/StillImage" />
        <dc:title></dc:title>
      </cc:Work>
    </rdf:RDF>
  </metadata>
  <defs
     id="defs6" />
  <image
     xlink:href="file:///C:/C_ImportantStuffUnited/DAE_1S2/AMP2/1DAE6_Sonneveld_Emile_AMPGame/recources/SimpleLevel_.png"
     x="0"
     y="0"
     width="2912"
     height="1902"
     id="image10" />
  <path
     d="M 0,951 0,0 l 1456,0 1456,0 0,951 0,951 -1456,0 -1456,0 0,-951 z m 947.65928,876.4582 c 42.18629,-5.5302 78.16932,-20.9157 108.84072,-46.538 41.6339,-34.7801 66.3755,-79.1486 74.1215,-132.9202 l 1.5126,-10.5 0.014,-18 0.014,-18 -1.6094,-13 c -5.1147,-41.3138 -22.8861,-172.1266 -24.5582,-180.7693 -3.9545,-20.44 -10.3186,-39.3684 -19.2419,-57.2307 l -4.9956,-10 -7.2755,-11 -7.2755,-11 -7.9702,-9.5115 C 1028.4212,1272.2157 983.94201,1246.6269 935,1237.5164 928.28893,1236.2671 848.91614,1227 844.92735,1227 l -0.97346,0 1.65852,-2.5312 c 0.91218,-1.3922 1.48505,-2.6573 1.27305,-2.8113 -0.212,-0.1541 -44.71046,-5.7654 -98.88546,-12.4696 -54.175,-6.7043 -154.59234,-19.1572 -223.14965,-27.6733 l -124.64965,-15.4838 -7.92876,-2.5047 -7.92876,-2.5047 -5.92159,-3.8391 -5.92159,-3.839 -5.67611,-6.1488 -5.6761,-6.1489 -3.05712,-6.2728 -3.05711,-6.2728 -1.62516,-6.4474 -1.62516,-6.4473 0.43238,-9.5527 0.43237,-9.5526 2.49303,-7.012 2.49302,-7.012 3.55452,-5.5566 3.55451,-5.5566 19.37648,-22.9314 c 10.65706,-12.6123 21.62737,-25.1505 24.37846,-27.8628 l 5.00199,-4.9313 5.95296,-3.8496 5.95295,-3.8496 8.54705,-2.5402 c 4.70087,-1.3972 11.47204,-3.6201 15.04704,-4.94 3.575,-1.3199 9.425,-3.10657 13,-3.9704 l 6.5,-1.57059 241.5,-4.4082 c 281.10427,-5.13112 392.727,-7.1412 471,-8.48167 31.075,-0.53218 65.95,-1.19689 77.5,-1.47713 11.55,-0.28024 65.8384,-1.27358 120.6409,-2.20743 l 99.6408,-1.69791 8.8417,1.73723 8.8416,1.73723 6.5175,2.75426 c 8.4278,3.56154 185.0773,98.89771 195.2565,105.37821 l 7.7389,4.9269 6.5889,7.1166 6.5888,7.1165 4.3777,9.0443 4.3778,9.0442 1.6931,8.711 1.693,8.7111 -2.4991,132.7889 c -1.3745,73.034 -2.3099,133.239 -2.0786,133.789 0.2313,0.55 24.958,19.225 54.9483,41.5 29.9902,22.275 67.1983,49.95 82.6847,61.5 15.4864,11.55 74.055,55.1855 130.1523,96.9678 56.0974,41.7823 121.3452,90.3952 144.9952,108.0286 23.65,17.6334 49.0178,36.5151 56.373,41.9593 l 13.373,9.8986 10.127,-0.2344 c 5.5698,-0.1289 39.0807,-1.2982 74.4685,-2.5985 l 64.3414,-2.3641 137.1586,-74.7981 c 75.4372,-41.139 188.4585,-102.7609 251.1585,-136.9377 l 114,-62.1396 0.2508,-636.13293 0.2508,-636.13297 -9.2508,-4.35057 c -5.0879,-2.39281 -94.162,-45.14219 -197.9423,-94.99862 L 2465.1169,28.018741 1626.3085,27.481003 C 1164.9638,27.185248 770.4,26.858813 749.5,26.755593 l -38,-0.187673 -13,1.250054 C 631.8325,34.228585 576.55767,47.278469 517.5,70.550429 489.67174,81.516288 455.45025,98.128456 432.85995,111.63732 427.00793,115.13679 421.99937,118 421.72983,118 c -0.26954,0 -8.98152,5.31157 -19.35995,11.8035 -45.7378,28.60994 -64.96483,42.92404 -101.86988,75.8399 l -17,15.16241 -13.511,13.8471 c -12.10144,12.40246 -24.51203,26.1437 -39.60208,43.84815 C 216.81613,294.42302 193.92984,326.61942 177.78595,352.5 170.68992,363.87579 157,387.99514 157,389.12138 c 0,0.46817 -1.9125,4.36746 -4.25,8.66509 -5.1584,9.48402 -8.28739,15.89422 -13.52771,27.71353 -7.9738,17.98454 -13.58523,31.29133 -15.60279,37 -0.77752,2.2 -2.61653,7.15 -4.08669,11 -1.47015,3.85 -4.04427,11.275 -5.72026,16.5 -1.67599,5.225 -3.9526,12.2 -5.05914,15.5 -1.10654,3.3 -2.40373,7.4625 -2.88265,9.25 -0.47892,1.7875 -1.34956,4.9375 -1.93475,7 -1.10313,3.88791 -2.84485,10.75495 -5.453173,21.5 -0.834439,3.4375 -1.700989,6.925 -1.925667,7.75 -0.845862,3.10595 -6.363504,30.87481 -7.947956,40 -2.615601,15.06379 -5.37949,37.88117 -7.146724,59 l -1.63177,19.5 0.03334,33.5 0.03334,33.5 1.042279,12.5 1.042279,12.5 1.503582,124.66263 c 0.826971,68.56445 1.464863,136.51447 1.41754,150.99997 l -0.08604,26.3374 1.65597,11.4325 1.655971,11.4326 2.868811,11.1263 c 1.577847,6.1195 4.710115,16.0285 6.960596,22.0199 l 4.091782,10.8935 6.47416,12.4035 6.47415,12.4035 6.71592,9.6441 c 23.94207,34.381 58.56949,61.8706 97.19922,77.1634 l 10.41362,4.1225 13.34135,3.4194 13.34134,3.4193 12.18455,1.5852 12.18455,1.5851 18.72009,-0.3254 18.7201,-0.3254 -5.25578,7.5 c -6.08363,8.6814 -84.54698,121.3764 -104.08856,149.5 -16.02183,23.0581 -20.09011,29.637 -27.51764,44.5 -9.54834,19.1068 -15.86483,38.3032 -19.50486,59.277 l -1.52326,8.7769 -0.82886,13.5418 -0.82885,13.5418 0.84913,13.0211 0.84913,13.0212 1.50949,8.7001 c 1.9211,11.0725 4.79675,22.2073 8.68261,33.6201 l 3.06434,9 6.35772,13 6.35773,13 5.33946,8.1634 c 15.97794,24.4284 37.6272,46.0776 62.05558,62.0556 l 8.1634,5.3394 13,6.3937 13,6.3936 12.47669,4.1587 c 14.52753,4.8422 26.77695,7.701 51.02331,11.9078 29.07567,5.0448 221.53194,38.6197 267,46.5794 23.375,4.0921 49.33131,8.5595 57.68068,9.9276 l 15.18068,2.4874 16.81932,1.1648 c 9.25063,0.6406 55.29432,2.8532 102.31932,4.9168 l 85.5,3.7519 20.19878,0.13 20.19879,0.1299 11.76171,-1.5418 z M 2100,758.48467 c -7.2917,-1.78806 -14.2786,-4.9506 -21.0312,-9.51955 l -5.5312,-3.7425 -5.98,-6.39265 -5.9801,-6.39265 -3.7667,-7.16818 -3.7668,-7.16818 -1.8819,-7.35805 -1.8818,-7.35806 -0.6271,-8.94242 C 2049.2084,689.52409 2047.1029,626.55 2044.8744,554.5 l -4.0519,-131 0.4873,-11.5 0.4873,-11.5 2.1992,-7 c 1.2095,-3.85 3.614,-9.7 5.3433,-13 l 3.1443,-6 8.508,-8.62362 8.5081,-8.62363 8.5,-4.02405 8.5,-4.02405 5.5,-1.35232 5.5,-1.35233 15,0.0267 15,0.0267 7.5104,2.15451 c 4.1307,1.18497 13.3557,4.62014 20.5,7.63369 7.1443,3.01355 60.6896,25.57307 118.9896,50.13227 l 106,44.65309 6.5,3.58577 6.5,3.58576 8.5258,8.60076 8.5258,8.60076 3.6837,7.5 3.6837,7.5 1.638,7 1.638,7 -0.445,11.5 -0.445,11.5 -2.2201,6.5 -2.2202,6.5 -4.0694,6.90564 -4.0695,6.90564 -6.1386,6.09436 -6.1386,6.09436 -61.9743,46.97061 c -34.0859,25.83383 -86.9493,65.90862 -117.4743,89.05508 -59.9813,45.48253 -61.9455,46.91526 -69.6614,50.81172 l -5.1613,2.60645 -7.3186,2.02807 -7.3185,2.02807 -10.5201,-0.0833 -10.5201,-0.0833 -5.5,-1.3487 z"
     id="path2987"
     style="fill:#000000" />
</svg>
