<?xml version="1.0" encoding="UTF-8" standalone="no"?>
<!-- Created with Inkscape (http://www.inkscape.org/) -->

<svg
   xmlns:dc="http://purl.org/dc/elements/1.1/"
   xmlns:cc="http://creativecommons.org/ns#"
   xmlns:rdf="http://www.w3.org/1999/02/22-rdf-syntax-ns#"
   xmlns:svg="http://www.w3.org/2000/svg"
   xmlns="http://www.w3.org/2000/svg"
   xmlns:xlink="http://www.w3.org/1999/xlink"
   version="1.1"
   width="1744"
   height="1013"
   id="svg2">
  <metadata
     id="metadata8">
    <rdf:RDF>
      <cc:Work
         rdf:about="">
        <dc:format>image/svg+xml</dc:format>
        <dc:type
           rdf:resource="http://purl.org/dc/dcmitype/StillImage" />
        <dc:title></dc:title>
      </cc:Work>
    </rdf:RDF>
  </metadata>
  <defs
     id="defs6" />
  <image
     xlink:href="file:///C:/C_ImportantStuffUnited/DAE_1S2/AMP2/AMP_ZWAAR/Stukje_1_20.png"
     x="0"
     y="0"
     width="1744"
     height="1013"
     id="image10" />
  <path
     d="m 370.5,930.43511 -7,-1.51043 -6.44134,-3.1192 -6.44135,-3.1192 -6.57893,-6.59314 -6.57893,-6.59314 -3.29543,-6.5 -3.29542,-6.5 -21.20179,-57.93601 -21.20178,-57.93601 -6.98252,-1.18567 c -3.84038,-0.65212 -11.4242,-2.37216 -16.85293,-3.82232 l -9.87043,-2.63665 -8.12957,-3.84446 -8.12958,-3.84447 -7.7994,-5.63905 -7.79941,-5.63906 -7.49392,-2.51563 c -14.29137,-4.79745 -28.2635,-13.50951 -41.47469,-25.86074 L 167.36516,719.5 160.9923,716 c -7.44608,-4.08942 -21.91422,-15.09793 -27.12392,-20.63805 -5.94771,-6.32493 -14.68261,-18.19906 -18.57949,-25.25677 -2.00586,-3.63285 -6.93161,-10.9989 -10.94611,-16.369 l -7.299088,-9.76382 -4.152315,-8.69995 -4.152316,-8.69995 -3.55754,-13.53623 -3.557539,-13.53623 0.04134,-16.5 0.04134,-16.5 3.113004,-11.68703 c 5.282153,-19.83058 9.638765,-28.72275 21.710594,-44.31297 7.22317,-9.32839 12.19647,-14.08134 23.51695,-22.47496 l 8.22957,-6.10186 8.20073,-3.96937 8.20072,-3.96938 13.91088,-3.70082 13.91088,-3.70081 16,0.0134 16,0.0134 12,3.1707 c 12.85142,3.39567 19.93718,5.89211 27.35074,9.6362 l 4.64926,2.34802 21,6.04093 c 78.56675,22.60076 154.7934,34.33857 241.49929,37.18743 l 29.49929,0.96925 30.00071,-1.00313 30.00071,-1.00313 18.2824,-1.47415 C 696.58235,517.01479 759.2511,505.75052 821,487.93188 c 26.00089,-7.50297 75.50694,-24.12967 77.45,-26.01171 0.5225,-0.50609 1.59123,-0.92017 2.37495,-0.92017 0.78373,0 3.95623,-1.106 7.05,-2.45778 3.09378,-1.35179 9.67505,-4.01941 14.62505,-5.92806 14.18623,-5.47001 61.20907,-26.77029 67.5,-30.57597 0.825,-0.49908 6.45,-3.4086 12.5,-6.4656 6.05,-3.057 13.7,-7.05423 17,-8.88273 3.3,-1.8285 9.15,-5.04539 13,-7.14865 6.6011,-3.60621 30.6341,-17.99672 36.3678,-21.77636 1.4477,-0.95434 3.5322,-2.19076 4.6322,-2.74761 2.947,-1.49185 5.552,-3.18545 9.64,-6.26724 2.0063,-1.5125 3.9683,-2.75 4.36,-2.75 0.3917,0 2.3537,-1.2375 4.36,-2.75 2.0064,-1.5125 4.3943,-3.2 5.3065,-3.75 2.0033,-1.20784 13.0895,-8.7808 21.3335,-14.57293 14.559,-10.22896 42.375,-31.48478 51.9852,-39.7249 1.0918,-0.93619 4.1817,-3.36812 6.8664,-5.40429 12.2668,-9.3036 44.6423,-38.84549 67.1976,-61.3163 21.912,-21.82988 52.641,-55.4622 62.2487,-68.12997 2.0361,-2.68469 4.4539,-5.77458 5.3727,-6.86643 10.5699,-12.55989 34.0647,-43.59223 43.8294,-57.89069 2.475,-3.62414 6.1597,-8.884467 8.1881,-11.689615 l 3.6882,-5.100271 3.1299,-2.309166 3.1299,-2.309165 7.0546,-1.593137 7.0546,-1.593136 18.1274,0.0059 18.1273,0.0059 9.5,1.459602 c 5.225,0.802781 12.875,2.405297 17,3.561146 l 7.5,2.101544 6,2.947678 6,2.947678 7.5,5.764092 7.5,5.76409 6.5,8.12576 6.5,8.12576 51.8991,82.80022 c 28.5445,45.54012 52.9381,85.07056 54.2079,87.84543 1.2699,2.77487 3.5433,9.54521 5.052,15.04521 l 2.743,10 -0.016,11.5 -0.017,11.5 -2.2351,8.5 c -1.2292,4.675 -3.3827,11.875 -4.7854,16 l -2.5503,7.5 27.6594,65.5 27.6593,65.5 2.4391,9 2.439,9 -0.015,7.5 -0.015,7.5 -1.8282,7 -1.8283,7 -2.7898,5.5 -2.7899,5.5 -6.6335,6.5 -6.6334,6.5 -5.3141,2.85749 -5.3141,2.85749 -28.6313,9.9399 c -15.7472,5.46695 -28.7427,10.05141 -28.879,10.1877 -0.1363,0.13628 3.1042,8.22978 7.2012,17.98556 l 7.4489,17.73777 2.0129,7.88366 2.0129,7.88366 0,6.97009 0,6.97008 -2.3144,7.99066 -2.3144,7.99065 -5.1983,7.01208 -5.1983,7.01209 -5.5635,4.20051 c -7.0647,5.33387 -11.9357,7.47085 -23.0242,10.1011 l -8.8869,2.108 -119.5,45.32963 -119.5,45.32962 -8.5,2.17322 -8.5,2.17322 -9,-0.4636 -9,-0.4636 -6.5,-2.11865 -6.5,-2.11865 -8.1822,-6.12251 -8.1822,-6.1225 -30.8178,-35.03994 c -16.9498,-19.27196 -31.0842,-35.44756 -31.4098,-35.94578 l -0.5921,-0.90585 -60.5243,23.03699 -60.5243,23.03699 -9.3836,2.51394 -9.3837,2.51394 -6,-0.0146 -6,-0.0146 -7.1279,-1.85175 c -9.2144,-2.39378 -14.85847,-5.26404 -22.80827,-11.59905 -3.54311,-2.82341 -25.01023,-22.6568 -47.70473,-44.0742 L 901.59639,672.5 l -1.08809,0.10387 c -0.59844,0.0571 -21.77013,16.45568 -47.04819,36.44122 -25.27806,19.98555 -69.53217,54.96728 -98.34247,77.73718 -28.8103,22.7699 -64.1353,50.71955 -78.5,62.11033 -42.38361,33.60893 -44.32612,34.90967 -57.11764,38.24688 l -7,1.82624 -6,0 -6,0 -7,-1.82624 c -13.04044,-3.40215 -13.06738,-3.42158 -67.82479,-48.90479 -20.80363,-17.28014 -37.97628,-31.2646 -38.16144,-31.07657 -0.18515,0.18803 -13.41594,21.6476 -29.40175,47.68792 -15.98581,26.04033 -31.37943,50.4679 -34.20805,54.2835 l -5.14295,6.93746 -5.63051,4.32086 c -3.09678,2.37648 -6.98051,5.00437 -8.63051,5.83976 -3.95648,2.00315 -14.6277,4.59294 -21.5,5.21781 l -5.5,0.5001 -7,-1.51042 z"
     id="path2987"
     style="fill:#000000" />
</svg>
