<?xml version="1.0" encoding="UTF-8" standalone="no"?>
<!-- Created with Inkscape (http://www.inkscape.org/) -->

<svg
   xmlns:dc="http://purl.org/dc/elements/1.1/"
   xmlns:cc="http://creativecommons.org/ns#"
   xmlns:rdf="http://www.w3.org/1999/02/22-rdf-syntax-ns#"
   xmlns:svg="http://www.w3.org/2000/svg"
   xmlns="http://www.w3.org/2000/svg"
   xmlns:xlink="http://www.w3.org/1999/xlink"
   version="1.1"
   width="1252"
   height="1958"
   id="svg2">
  <metadata
     id="metadata8">
    <rdf:RDF>
      <cc:Work
         rdf:about="">
        <dc:format>image/svg+xml</dc:format>
        <dc:type
           rdf:resource="http://purl.org/dc/dcmitype/StillImage" />
        <dc:title></dc:title>
      </cc:Work>
    </rdf:RDF>
  </metadata>
  <defs
     id="defs6" />
  <image
     xlink:href="file:///C:/C_ImportantStuffUnited/DAE_1S2/AMP2/1DAE6_Sonneveld_Emile_AMPGame/recources/Stukje_2_0.png"
     x="0"
     y="0"
     width="1252"
     height="1958"
     id="image10" />
  <path
     d="m 870.71505,1905.9639 -68.21505,-0.036 -5.20031,-1.8719 c -2.86017,-1.0295 -10.27577,-4.4105 -16.47911,-7.5133 l -11.2788,-5.6414 -9.52089,-6.3571 c -5.23649,-3.4963 -13.88942,-10.0133 -19.22873,-14.482 l -9.70783,-8.1251 -6.74441,-7.5059 c -3.70942,-4.1282 -10.39794,-12.3577 -14.86338,-18.2877 -4.46544,-5.9299 -10.93703,-14.8962 -14.38132,-19.925 -3.44429,-5.0288 -10.47742,-14.0752 -15.62918,-20.1031 l -9.36683,-10.9599 -10.2996,-9.1839 C 654.13482,1770.9203 646.125,1764.229 642,1761.1018 c -4.125,-3.1271 -11.49286,-8.2468 -16.37303,-11.3771 -4.88017,-3.1302 -14.10517,-8.3582 -20.5,-11.6177 -6.39483,-3.2596 -16.12697,-7.7176 -21.62697,-9.9069 -5.5,-2.1893 -14.725,-5.3797 -20.5,-7.0898 -5.775,-1.7101 -14.56004,-3.991 -19.52232,-5.0687 -4.96228,-1.0777 -14.62384,-2.6529 -21.47014,-3.5005 L 509.55972,1711 l -19.22864,0 -19.22865,0 -11.80121,1.5163 c -6.49067,0.8339 -16.96207,2.6597 -23.26978,4.0572 -6.30771,1.3976 -16.95334,4.3254 -23.65696,6.5063 -6.70362,2.1809 -16.84277,6.0006 -22.53144,8.4881 -5.68867,2.4875 -14.61804,6.8021 -19.84304,9.5881 -5.225,2.786 -13.325,7.5515 -18,10.59 -4.675,3.0386 -19.87435,13.6763 -33.77633,23.6393 -13.90198,9.9631 -27.40198,19.4102 -30,20.9937 -2.59802,1.5834 -8.09867,4.3077 -12.22367,6.0541 l -7.5,3.1751 -38.58592,21.7273 -38.58593,21.7272 -9.44312,3.3751 -9.44312,3.3751 -10.47095,2.3435 -10.47096,2.3436 -16.5,-0.07 -16.5,-0.07 -8.5,-2.7967 c -4.675,-1.5382 -10.75,-3.9316 -13.5,-5.3186 -2.75,-1.387 -7.475,-4.2005 -10.5,-6.2522 l -5.5,-3.7304 -7.13556,-7.5137 -7.13556,-7.5138 -4.063343,-6.8674 -4.063342,-6.8675 -3.231189,-9.5 -3.231188,-9.5 -0.421785,-13.5 -0.421785,-13.5 2.051036,-8.6149 2.051036,-8.6149 4.477109,-10.0978 4.477108,-10.0977 2.983913,-4.2874 c 1.641152,-2.358 4.936831,-6.1441 7.323731,-8.4135 C 76.547082,1715.1044 87.275,1706.5801 98,1698.4309 c 10.725,-8.1491 30.075,-22.9069 43,-32.7951 12.925,-9.8881 32.95,-25.1884 44.5,-34.0008 l 21,-16.0224 16.70549,-16.4491 16.70548,-16.4492 32.5348,-56.696 32.5348,-56.6959 10.50133,-27.0406 10.50133,-27.0406 2.46299,-9.3706 c 1.35464,-5.1538 20.23991,-83.3956 41.96727,-173.8706 l 39.50428,-164.5 7.49438,-45 c 4.1219,-24.75 9.07262,-56.25 11.0016,-70 1.92898,-13.75 5.98428,-43.45 9.01176,-66 l 5.50452,-41 20.03843,-185.5 c 11.02114,-102.025 20.26602,-187.75 20.54419,-190.5 0.27817,-2.75 0.96661,-27.2588 1.52986,-54.46401 0.56325,-27.2052 1.02219,-64.7802 1.01988,-83.5 l -0.004,-34.03599 0.993,-13.5 c 0.54615,-7.425 1.68571,-17.55 2.53236,-22.5 0.84666,-4.95 2.84663,-14.175 4.44439,-20.5 1.59776,-6.325 4.44211,-16 6.32078,-21.5 1.87867,-5.5 4.40056,-12.475 5.6042,-15.5 1.20364,-3.025 3.73434,-8.93762 5.62377,-13.13916 1.88943,-4.20153 5.50706,-11.40153 8.03916,-16 2.53211,-4.59846 7.335,-12.41084 10.6731,-17.36084 3.3381,-4.95 8.54137,-12.15 11.56282,-16 l 5.49354,-7 12.29051,-12.22469 12.29051,-12.22469 9.28685,-6.87993 C 586.32092,99.386724 593.65,94.280518 597.5,91.823561 c 3.85,-2.456958 10.825,-6.540932 15.5,-9.075498 4.675,-2.534566 13.45,-6.609558 19.5,-9.055538 6.05,-2.44598 14.6,-5.621143 19,-7.055918 4.4,-1.434775 12.95,-3.698746 19,-5.031047 6.05,-1.332301 15.05,-3.024274 20,-3.759941 l 9,-1.337576 21.5,0 21.5,0 9,1.337576 c 4.95,0.735667 13.95,2.42764 20,3.759941 6.05,1.332301 14.6,3.596272 19,5.031047 4.4,1.434775 12.88571,4.589515 18.85712,7.010533 5.97142,2.421019 14.74642,6.498007 19.5,9.059975 4.75359,2.561967 11.79288,6.668351 15.64288,9.125297 3.85,2.456946 10.375,6.946354 14.5,9.976458 4.125,3.03011 11.51342,9.15021 16.41872,13.60021 4.90529,4.45001 12.73732,12.36592 17.40451,17.59092 4.66719,5.225 11.50398,13.55 15.19286,18.5 3.68888,4.95 9.77095,14.175 13.51572,20.5 3.74476,6.325 25.70042,42.775 48.79035,81 23.08994,38.225 46.04684,76.25 51.01524,84.5 l 9.0336,15 3.2804,8.03614 c 1.8042,4.41988 4.0442,10.94488 4.9777,14.5 l 1.6973,6.46386 0.014,10 0.014,10 -1.7482,6.42004 -1.7483,6.42003 -3.0645,6.07997 -3.0646,6.07996 -4.3594,5.5 c -2.3977,3.025 -6.049,6.87244 -8.114,8.54986 -2.065,1.67743 -5.7796,4.42306 -8.2546,6.10142 -2.475,1.67836 -7.1189,4.58092 -10.31977,6.45014 -3.20088,1.86922 -9.68506,6.45703 -14.40929,10.19515 -4.72423,3.73811 -12.23033,9.79192 -16.68022,13.45292 -4.4499,3.66099 -11.88878,10.05254 -16.53086,14.20343 -4.64207,4.15089 -14.77184,13.84708 -22.51058,21.54708 -7.73875,7.7 -16.79746,16.96767 -20.13048,20.59482 -3.33302,3.62716 -9.20139,10.37716 -13.04084,15 -3.83944,4.62285 -9.90725,12.00518 -13.48403,16.40518 -3.57678,4.4 -8.50364,10.65808 -10.94858,13.90684 -2.44494,3.24876 -5.75386,7.74876 -7.35316,10 -1.59929,2.25124 -6.34767,9.26816 -10.55194,15.59316 -4.20428,6.325 -9.25153,13.99513 -11.21611,17.04472 -1.96459,3.0496 -7.61733,12.7246 -12.56165,21.5 -4.94432,8.77541 -12.53856,23.20244 -16.87608,32.06008 -4.33753,8.85764 -8.65102,17.85764 -9.58555,20 -0.93453,2.14236 -2.67241,6.11862 -3.86197,8.83612 -1.18955,2.71751 -4.17853,10.14251 -6.64216,16.5 -2.46364,6.3575 -6.85898,18.55085 -9.76744,27.09635 -2.90845,8.5455 -7.13792,22.2705 -9.39881,30.5 -2.26089,8.2295 -5.65578,21.71273 -7.54419,29.96273 -1.88841,8.25 -4.82693,23.30149 -6.53005,33.44775 -1.70311,10.14627 -4.08351,27.47127 -5.28977,38.5 l -2.19319,20.05225 0,41.5 0,41.5 2.20862,20.2028 c 1.21474,11.1115 3.31069,26.8615 4.65766,35 1.34697,8.1385 3.3738,19.4412 4.50406,25.1172 1.13025,5.6761 2.99726,14.2261 4.1489,19 1.15165,4.774 4.06254,15.6827 6.46865,24.2415 2.40611,8.5588 6.58473,22.0588 9.28581,30 2.70108,7.9412 6.72275,19.1635 8.93703,24.9385 2.21429,5.775 6.37567,15.9 9.24753,22.5 2.87185,6.6 8.8177,19.2 13.21301,28 4.3953,8.8 9.67312,18.925 11.72848,22.5 2.05536,3.575 6.61476,11.3656 10.132,17.3124 3.51723,5.9468 8.19497,13.6557 10.39497,17.1308 2.2,3.4751 6.7,10.2493 10,15.0538 3.3,4.8045 6.675,9.7244 7.5,10.9331 0.825,1.2087 5.775,7.743 11,14.5206 5.225,6.7777 11.975,15.2569 15,18.8427 3.025,3.5858 9.05073,10.6117 13.3905,15.6131 4.33978,5.0014 15.36478,16.5613 24.5,25.6886 9.13523,9.1273 20.71516,20.1523 25.73319,24.5 5.01803,4.3477 12.15012,10.3799 15.84908,13.4049 3.69896,3.025 8.14329,6.6761 9.8763,8.1136 1.73301,1.4375 7.42593,5.8047 12.65093,9.7049 5.225,3.9002 10.85,8.0408 12.5,9.2014 1.65,1.1606 6.375,4.4522 10.5,7.3147 4.125,2.8625 12.675,8.4104 19,12.3286 6.325,3.9182 16,9.7154 21.5,12.8826 5.5,3.1671 16.75,9.1938 25,13.3925 8.25,4.1988 19.95,9.81 26,12.4693 6.05,2.6594 12.35,5.4332 14,6.164 1.65,0.7309 7.5678,3.1513 13.1506,5.3787 5.5828,2.2273 10.6898,4.0497 11.3489,4.0497 0.659,0 2.6162,0.6415 4.3494,1.4255 1.7331,0.7841 5.8549,2.4878 9.1595,3.7862 l 6.0083,2.3606 5.743,3.812 5.7429,3.8119 5.8952,6.4336 5.8952,6.4335 3.5369,7.2184 3.5368,7.2183 1.6576,6.4952 1.6575,6.4951 0,9.0097 0,9.0097 -1.6719,6.4951 -1.672,6.4952 -2.9463,6.2003 -2.9463,6.2004 -5.7722,7.7996 c -3.1747,4.2898 -22.8215,32.0997 -43.6597,61.7997 -20.8381,29.7 -46.4417,66.15 -56.8969,81 -10.4551,14.85 -20.8914,29.7 -23.1916,33 -2.3003,3.3 -7.0893,11.4 -10.6423,18 -3.553,6.6 -8.4955,15.1703 -10.9834,19.0451 -2.4879,3.8749 -8.1283,11.5249 -12.5342,17 l -8.0108,9.9549 -7.8771,7.5102 c -4.3324,4.1305 -11.7021,10.4591 -16.3771,14.0634 -4.675,3.6043 -11.875,8.7002 -16,11.3243 -4.125,2.6241 -12.45,7.1671 -18.5,10.0956 -6.05,2.9284 -13.15323,6.0404 -15.78495,6.9155 l -4.78494,1.591 -68.21506,-0.036 z m -0.26312,-226.5052 2.95192,-0.4895 2.29808,-2.1589 2.29807,-2.1589 0,-3.8024 0,-3.8024 -71.55193,-152.7733 -71.55192,-152.7733 -2.07453,-1.7627 c -1.14098,-0.9695 -3.22198,-2.0507 -4.62442,-2.4027 l -2.54991,-0.6399 -2.63936,0.9962 -2.63935,0.9963 -116.43429,86.308 c -64.03886,47.4695 -117.49453,87.2524 -118.79039,88.4065 -1.29585,1.154 -2.77186,3.1756 -3.28001,4.4923 l -0.92392,2.3941 1.08117,3.276 c 0.59464,1.8017 1.72756,3.8124 2.5176,4.4681 l 1.43644,1.1921 190.76241,65.362 190.76241,65.362 2.95193,-0.4896 z"
     id="path2987"
     style="fill:#000000" />
</svg>
