<?xml version="1.0" encoding="UTF-8" standalone="no"?>
<!-- Created with Inkscape (http://www.inkscape.org/) -->

<svg
   xmlns:dc="http://purl.org/dc/elements/1.1/"
   xmlns:cc="http://creativecommons.org/ns#"
   xmlns:rdf="http://www.w3.org/1999/02/22-rdf-syntax-ns#"
   xmlns:svg="http://www.w3.org/2000/svg"
   xmlns="http://www.w3.org/2000/svg"
   xmlns:xlink="http://www.w3.org/1999/xlink"
   version="1.1"
   width="1744"
   height="1013"
   id="svg2">
  <metadata
     id="metadata8">
    <rdf:RDF>
      <cc:Work
         rdf:about="">
        <dc:format>image/svg+xml</dc:format>
        <dc:type
           rdf:resource="http://purl.org/dc/dcmitype/StillImage" />
        <dc:title></dc:title>
      </cc:Work>
    </rdf:RDF>
  </metadata>
  <defs
     id="defs6" />
  <image
     xlink:href="file:///C:/C_ImportantStuffUnited/DAE_1S2/AMP2/AMP_ZWAAR/Stukje_1_0.png"
     x="0"
     y="0"
     width="1744"
     height="1013"
     id="image10" />
  <path
     d="m 370.81972,908.48024 -4.68027,-1.5001 -5.39385,-4.92967 -5.39384,-4.92967 -3.10597,-6.8104 c -1.70828,-3.74572 -13.0618,-34.01866 -25.23005,-67.2732 -12.16824,-33.25455 -22.55132,-60.9776 -23.0735,-61.6068 l -0.94942,-1.14398 -9.16086,-0.69156 c -21.20794,-1.60098 -38.78516,-7.94466 -54.14412,-19.54079 l -5.39585,-4.0739 -6.89599,-2.38089 c -10.5586,-3.64543 -15.86038,-6.15628 -23.70516,-11.22643 l -7.19084,-4.64751 -7.5,-7.25955 -7.5,-7.25954 -6.95195,-3.6662 c -8.66153,-4.56777 -15.3686,-9.40149 -22.86015,-16.4751 l -5.8121,-5.48785 -4.83211,-6.53855 c -2.65766,-3.5962 -6.53535,-9.68855 -8.61711,-13.53855 -2.08175,-3.85 -5.1729,-8.575 -6.86922,-10.5 -1.69633,-1.925 -5.20994,-6.70187 -7.80802,-10.61526 l -4.72378,-7.11526 -3.08019,-7.23832 c -1.6941,-3.98108 -3.97404,-10.67921 -5.06654,-14.88474 l -1.98637,-7.64642 -0.58682,-10.57525 -0.58683,-10.57525 1.21525,-8.31111 c 1.59026,-10.87587 4.34743,-19.72185 9.17628,-29.44079 l 3.9263,-7.9024 5.01319,-6.76242 5.0132,-6.76243 6.31119,-5.90381 6.3112,-5.90382 7.02255,-4.66858 7.02255,-4.66858 7.23832,-3.08019 c 3.98108,-1.6941 10.67921,-4.02913 14.88474,-5.18897 l 7.64642,-2.10879 16.5,0.0142 16.5,0.0142 8.5,2.58827 c 4.675,1.42355 11.62461,3.99172 15.44358,5.70705 l 6.94358,3.11878 31.27008,8.95497 c 17.19854,4.92523 32.07393,8.94791 33.05642,8.93928 0.98249,-0.009 6.96134,1.3076 13.28634,2.92497 11.18339,2.85972 20.19805,4.82182 32.5,7.07385 3.3,0.60411 8.025,1.57086 10.5,2.14833 6.04485,1.41038 16.97503,3.03992 52,7.75249 28.88439,3.88635 39.09395,4.89645 73.5,7.27179 l 17,1.17365 41,0 41,0 17,-1.17365 c 34.40605,-2.37534 44.61561,-3.38544 73.5,-7.27179 35.02497,-4.71257 45.95515,-6.34211 52,-7.75249 2.475,-0.57747 7.2,-1.54422 10.5,-2.14833 12.30195,-2.25203 21.31661,-4.21413 32.5,-7.07385 6.325,-1.61737 12.32622,-2.93361 13.33605,-2.92497 2.58698,0.0221 79.05515,-22.04797 79.66395,-22.99244 0.275,-0.42663 5.45,-2.239 11.5,-4.02749 6.05,-1.78849 11.225,-3.59339 11.5,-4.01088 0.275,-0.4175 3.9875,-1.77219 8.25,-3.01043 l 7.75,-2.25134 0,-0.73482 0,-0.73482 6.47198,-1.75188 6.47197,-1.75188 -0.3974,-0.64301 -0.3974,-0.64301 6.42542,-1.84016 6.42543,-1.84016 0,-0.76495 0,-0.76495 6.47198,-1.75188 6.47197,-1.75188 -0.46969,-0.75997 -0.46969,-0.75998 L 951,463 955.99543,461.80162 955.5,461 955.00457,460.19838 960,459 l 4.99543,-1.19838 -0.49936,-0.80798 -0.49936,-0.80797 4.95173,-1.26909 4.95173,-1.26909 -0.43192,-0.69887 -0.43193,-0.69887 4.48184,-1.25483 4.48184,-1.25484 0,-0.79059 0,-0.79058 3.00873,-0.66083 3.00872,-0.66082 -0.49056,-0.79376 -0.49057,-0.79375 4.48184,-1.25483 4.48184,-1.25484 0,-0.79059 0,-0.79058 3,-0.65891 3,-0.65891 0,-0.8804 0,-0.88041 4,-1.19843 4,-1.19843 0,-0.76225 0,-0.76226 3.0087,-0.66083 3.0088,-0.66082 -0.4906,-0.79376 -0.4906,-0.79375 4.4819,-1.25483 4.4818,-1.25484 0,-0.85099 0,-0.85099 2.5,-0.62746 2.5,-0.62746 0,-0.81213 0,-0.81214 3.0087,-0.66083 3.0088,-0.66082 L 1034.5,422 1033.9825,421.16274 1037,420.5 1040.0175,419.83726 1039.5,419 1038.9825,418.16274 1042,417.5 l 3.0175,-0.66274 -0.4906,-0.79376 -0.4906,-0.79375 L 1048.5,414 l 4.4637,-1.24975 -0.4906,-0.79375 -0.4906,-0.79376 L 1055,410.5 1058.0175,409.83726 1057.5,409 1056.9825,408.16274 1060,407.5 1063.0175,406.83726 1062.5,406 1061.9825,405.16274 1065,404.5 1068.0175,403.83726 1067.5,403 1066.9825,402.16274 1070,401.5 1073.0175,400.83726 1072.5,400 1071.9825,399.16274 1075,398.5 l 3.0175,-0.66274 -0.5678,-0.91863 -0.5677,-0.91863 1.406,0 c 0.7733,0 2.4437,-0.9 3.712,-2 1.2683,-1.1 2.9122,-2 3.653,-2 l 1.347,0 0,-0.98095 0,-0.98095 2.4931,-0.62572 2.4931,-0.62573 -0.5521,-0.89332 -0.5521,-0.89333 1.406,0 c 0.7733,0 2.4437,-0.9 3.712,-2 1.2683,-1.1 2.9387,-2 3.712,-2 l 1.406,0 -0.5677,-0.91863 -0.5678,-0.91863 L 1103,380.5 l 3.0175,-0.66274 -0.5678,-0.91863 -0.5677,-0.91863 1.406,0 c 0.7733,0 2.4437,-0.9 3.712,-2 1.2683,-1.1 2.9387,-2 3.712,-2 l 1.406,0 -0.5521,-0.89333 -0.5521,-0.89332 2.534,-0.63599 2.534,-0.63599 -0.5999,-0.97069 -0.5999,-0.97068 1.406,0 c 0.7733,0 2.4437,-0.9 3.712,-2 1.2683,-1.1 2.9387,-2 3.712,-2 l 1.406,0 -0.5521,-0.89333 -0.5521,-0.89332 2.534,-0.63599 2.534,-0.63599 -0.5999,-0.97069 -0.5999,-0.97068 1.3556,0 c 1.2796,0 3.0593,-1.17335 7.9633,-5.25 1.1578,-0.9625 2.7378,-1.75 3.5111,-1.75 l 1.406,0 -0.5999,-0.97068 -0.5999,-0.97069 2.534,-0.63599 2.534,-0.63599 -0.534,-0.86401 -0.534,-0.86401 2.534,-0.63599 2.534,-0.63599 -0.534,-0.86401 -0.534,-0.86401 2.534,-0.63599 2.534,-0.63599 -0.534,-0.86401 -0.534,-0.86401 2.534,-0.63599 2.534,-0.63599 -0.534,-0.86401 -0.534,-0.86401 2.534,-0.63599 2.534,-0.63599 -0.5076,-0.82133 -0.5076,-0.82133 2.0145,-0.63938 C 1167.0935,335.15295 1168,334.47587 1168,334 c 0,-0.47587 0.9065,-1.15295 2.0145,-1.50461 l 2.0145,-0.63938 -0.5076,-0.82133 -0.5076,-0.82133 2.534,-0.63599 2.534,-0.63599 -0.534,-0.86401 -0.534,-0.86401 2.534,-0.63599 2.534,-0.63599 -0.5554,-0.89869 -0.5554,-0.89869 2.0145,-0.63938 C 1182.0935,323.15295 1183,322.47587 1183,322 c 0,-0.47587 0.9065,-1.15295 2.0145,-1.50461 l 2.0145,-0.63938 -0.5554,-0.89869 -0.5554,-0.89869 2.534,-0.63599 2.534,-0.63599 -0.5076,-0.82133 -0.5076,-0.82133 2.029,-0.64399 2.029,-0.64399 -0.5076,-0.82133 -0.5076,-0.82133 2.534,-0.63599 2.534,-0.63599 -0.5554,-0.89869 -0.5554,-0.89869 2.029,-0.64399 2.029,-0.64399 -0.53,-0.85766 -0.5301,-0.85766 3.4623,-1.25198 3.4623,-1.25198 -0.4613,-0.74637 -0.4612,-0.74637 L 1208,301.5 1210.029,300.85601 1209.5,300 1208.971,299.14399 1211,298.5 1213.029,297.85601 1212.5,297 l -0.529,-0.85601 2.0145,-0.63938 C 1215.0935,295.15295 1216,294.47587 1216,294 c 0,-0.47587 0.9065,-1.15295 2.0145,-1.50461 l 2.0145,-0.63938 -0.5018,-0.81195 -0.5018,-0.81195 L 1222,289 l 2.9746,-1.23211 -0.5018,-0.81195 -0.5018,-0.81195 L 1226,285.5 1228.029,284.85601 1227.5,284 1226.971,283.14399 1229,282.5 1231.029,281.85601 1230.5,281 1229.971,280.14399 1232,279.5 l 2.029,-0.64399 -0.5018,-0.81195 -0.5018,-0.81195 L 1236,276 l 2.9746,-1.23211 -0.5018,-0.81195 -0.5018,-0.81195 2.029,-0.64399 2.029,-0.64399 -0.5709,-0.92375 -0.5709,-0.92375 2.5251,-1.15048 2.525,-1.15049 -0.4832,-0.78177 -0.4831,-0.78178 L 1247,265.5 1249.029,264.85601 1248.5,264 1247.971,263.14399 1250,262.5 l 2.029,-0.64399 -0.4803,-0.77729 -0.4804,-0.77729 L 1253.5,259 l 2.4317,-1.30143 -0.4345,-0.70306 -0.4345,-0.70305 2.525,-1.15049 2.5251,-1.15048 -0.7109,-1.15025 -0.7109,-1.15026 1.1502,0.7109 1.1503,0.7109 1.1505,-2.52503 1.1505,-2.52504 0.703,0.43452 0.7031,0.43451 L 1266,246.5 l 1.3014,-2.43174 0.7773,0.48039 0.7773,0.48039 0.644,-2.02904 0.644,-2.02904 0.856,0.52904 0.856,0.52904 0.644,-2.02904 0.644,-2.02904 0.7818,0.48316 0.7817,0.48317 1.1505,-2.52504 1.1505,-2.52503 0.9238,0.57091 0.9237,0.57091 0.644,-2.02904 0.644,-2.02904 0.8119,0.50181 0.812,0.50181 L 1283,229 l 1.2321,-2.97458 0.812,0.50181 0.8119,0.50181 0.644,-2.02904 0.644,-2.02904 0.856,0.52904 0.856,0.52904 0.644,-2.02904 0.644,-2.02904 0.856,0.52904 0.856,0.52904 0.644,-2.02904 0.644,-2.02904 0.8119,0.50181 0.812,0.50181 L 1296,215 l 1.2321,-2.97458 0.812,0.50181 0.8119,0.50181 0.6394,-2.01452 C 1299.8471,209.90653 1300.5241,209 1301,209 c 0.4759,0 1.1529,-0.90653 1.5046,-2.01452 l 0.6394,-2.01452 0.856,0.52904 0.856,0.52904 0.644,-2.02904 0.644,-2.02904 0.856,0.52904 0.856,0.52904 0.644,-2.02904 0.644,-2.02904 0.7464,0.46128 0.7463,0.46128 1.252,-3.4623 1.252,-3.4623 0.8577,0.53006 0.8576,0.53006 0.644,-2.02904 0.644,-2.02904 0.8987,0.55542 0.8987,0.55542 0.636,-2.53399 0.6359,-2.53399 0.8214,0.50761 0.8213,0.50761 0.644,-2.02904 0.644,-2.02904 0.8213,0.50761 0.8214,0.50761 0.6359,-2.53399 0.636,-2.53399 0.8987,0.55542 0.8987,0.55542 0.6394,-2.01452 C 1327.8471,176.90653 1328.5241,176 1329,176 c 0.4759,0 1.1529,-0.90653 1.5046,-2.01452 l 0.6394,-2.01452 0.8987,0.55542 0.8987,0.55542 0.636,-2.53399 0.6359,-2.53399 0.8641,0.53399 0.864,0.53399 0.636,-2.53399 0.6359,-2.53399 0.8214,0.50761 0.8213,0.50761 0.6394,-2.01452 C 1339.8471,161.90653 1340.5241,161 1341,161 c 0.4759,0 1.1529,-0.90653 1.5046,-2.01452 l 0.6394,-2.01452 0.8213,0.50761 0.8214,0.50761 0.6359,-2.53399 0.636,-2.53399 0.864,0.53399 0.8641,0.53399 0.6359,-2.53399 0.636,-2.53399 0.864,0.53399 0.8641,0.53399 0.6359,-2.53399 0.636,-2.53399 0.864,0.53399 0.8641,0.53399 0.6359,-2.53399 0.636,-2.53399 0.864,0.53399 0.8641,0.53399 0.6359,-2.53399 0.636,-2.53399 0.9707,0.59992 0.9707,0.59991 0,-1.35562 c 0,-1.27958 1.1734,-3.05934 5.25,-7.96329 0.9625,-1.15783 1.75,-2.73784 1.75,-3.51115 l 0,-1.406 0.9707,0.59991 0.9707,0.59992 0.636,-2.53399 0.6359,-2.53399 0.8934,0.55211 0.8933,0.5521 0,-1.406 c 0,-0.77331 0.9,-2.44372 2,-3.71203 1.1,-1.26831 2,-2.93872 2,-3.71203 l 0,-1.406 0.9707,0.59991 0.9707,0.59992 0.6494,-2.58747 0.6494,-2.58747 0.5406,0.54064 0.5407,0.54065 1.1159,-2.24408 1.1159,-2.24407 14.4734,-0.84337 14.4733,-0.84336 12.1586,1.13174 12.1586,1.13174 7.3343,2.03244 7.3343,2.03244 6.0071,3.165 6.0071,3.16501 8,8.03966 8,8.03967 50,79.79484 c 27.5,43.88717 51.9106,83.28392 54.2459,87.54834 l 4.2458,7.75348 2.0042,7.83615 2.0041,7.83615 -0.052,8.09003 -0.052,8.09004 -2.3194,8.5 c -1.2757,4.675 -3.4928,11.65 -4.9271,15.5 l -2.6077,7 -0.021,3.10078 c -0.03,4.45654 -0.3807,3.57063 30.2175,76.39922 l 27.9394,66.5 1.5897,6.39213 1.5898,6.39213 -1.0887,6.35626 -1.0888,6.35626 -2.1065,4.35147 -2.1065,4.35146 -3.7335,3.75097 -3.7335,3.75098 -5.5,2.77973 -5.5,2.77973 -30.9902,10.71797 c -17.0446,5.89489 -32.2279,11.358 -33.7406,12.14025 l -2.7504,1.42228 -1.6382,2.50029 -1.6383,2.5003 0.509,3.79438 0.5089,3.79437 10.0973,24.02988 10.0973,24.02988 1.1235,5.23883 1.1235,5.23883 -0.6572,4.66581 -0.6573,4.66581 -2.4734,5.16054 -2.4735,5.16055 -3.9251,3.54614 c -2.1589,1.95038 -5.6916,4.44731 -7.8506,5.54873 l -3.9253,2.00258 -9.8697,2.45986 -9.8697,2.45986 -119,45.16461 -119,45.1646 -5.9784,1.5326 -5.9784,1.53259 -5.3884,-0.55613 -5.3884,-0.55614 -5.1636,-2.52631 -5.1636,-2.52631 -4.2016,-3.59635 c -2.3108,-1.97799 -16.8778,-18.08073 -32.3711,-35.78388 -15.4933,-17.70315 -30.6713,-34.77145 -33.7288,-37.92956 l -5.5593,-5.74201 -3.2927,-1.08668 -3.2926,-1.08668 -3.2466,0.69467 c -1.7856,0.38206 -31.3715,11.3839 -65.7465,24.44853 -34.375,13.06463 -64.941,24.54966 -67.9244,25.52231 l -5.4243,1.76844 -6.9115,-0.0433 -6.9115,-0.0433 -6.1923,-3.04845 -6.1923,-3.04846 -6.47183,-5.79183 c -3.55953,-3.18551 -22.45508,-20.86896 -41.99012,-39.29656 -19.53505,-18.4276 -38.75685,-36.51946 -42.71512,-40.20414 l -7.19685,-6.6994 -3.89103,-1.16578 -3.89102,-1.16578 -3.4847,1.65359 -3.48469,1.6536 -50.90917,40.23506 C 784.15996,736.348 705.32127,798.69319 661.5,833.37382 c -32.6066,25.80522 -38.2419,29.87409 -44.72075,32.28987 l -4.27925,1.59561 -6.5,-0.0175 -6.5,-0.0175 -4.5,-2.0002 c -6.07709,-2.7012 -9.11887,-5.02 -36.68562,-27.96621 -37.87803,-31.52916 -63.54784,-52.61752 -67.10955,-55.13208 l -3.29517,-2.32639 -3.48651,-0.0988 -3.48652,-0.0988 -2.90695,2.94908 -2.90695,2.9491 -32.17603,52.5 c -36.11147,58.92125 -34.94257,57.09292 -39.85356,62.3364 l -3.59314,3.8364 -5,2.56975 -5,2.56975 -7,0.33402 -7,0.33401 -4.68028,-1.50009 z"
     id="path2987"
     style="fill:#000000" />
</svg>
